<svg width="247" height="324" viewBox="0 0 247 324" fill="none" xmlns="http://www.w3.org/2000/svg">
<path fill-rule="evenodd" clip-rule="evenodd" d="M241.44 179.272C238.423 179.568 235.406 179.864 232.389 180.161C217.941 181.265 203.499 183.571 189.161 184.955C188.804 184.374 188.106 184.47 187.681 184.874C186.251 184.748 184.647 183.654 183.351 184.792C183.309 184.786 183.267 184.779 183.225 184.775C180.917 180.345 179.322 175.619 177.774 170.887C176.786 167.978 175.457 165.162 173 163.209C168.808 160.297 159.202 154.394 154.279 154.642C154.197 153.76 153.786 152.851 153.112 152.264C154.599 149.728 148.653 148.073 148.234 148.367C148.503 139.895 144.519 132.537 135.734 130.85C127.865 129.209 116.671 128.933 112.438 137.161C111.973 137.109 107.217 137.084 106.757 137.135C106.042 136.229 98.1848 144.819 101.405 147.809C72.615 160.55 56.245 159.03 48.2764 194.847C47.1991 198.212 47.1207 201.893 45.9831 205.183C41.936 214.637 38.6534 224.704 37.8364 234.991C35.8633 235.496 35.6364 238.977 37.9219 239.48C38.7949 239.673 39.5249 239.936 40.1615 240.434C39.6638 248.864 41.7019 268.121 42.986 268.062C45.6043 276.398 57.2836 278.751 65.552 275.821C64.1267 278.504 65.552 280.191 65.552 281.624C95.3042 282.75 127.835 282.102 157.579 283.646C161.384 283.592 165.386 284.581 169.138 284.012C171.427 283.463 171.431 279.863 169.109 279.418L179.253 277.214C179.026 277.128 183.434 274.195 186.766 268.714C189.867 262.583 187.756 255.182 189.161 248.512C200.135 247.615 211.291 247.231 222.145 245.371C223.625 249.801 230.031 244.503 232.068 242.372C232.065 242.369 232.063 242.366 232.06 242.362C233.046 242.093 233.836 241.169 233.862 240.075C234.554 239.087 234.699 237.695 234.036 236.74C237.074 219.205 241.705 201.301 243.378 183.6C243.97 183.469 244.527 183.21 245 182.81L244.962 182.772C245.762 181.879 245.918 180.338 244.583 179.58C243.507 178.967 242.608 179.157 241.44 179.272Z" fill="white"/>
<path fill-rule="evenodd" clip-rule="evenodd" d="M126.704 244.902L129.028 246.382L148.042 252.511L159.662 253.99L169.169 252.511V268.785L171.07 284.002C170.225 285.552 162.197 285.552 146.986 284.002C137.289 283.014 101.85 282.535 93.7812 282.324L93.324 282.311C83.8424 282.038 74.4762 282.038 65.2254 282.311V276.605L91.6338 263.501L115.296 250.186L126.704 244.902ZM113.232 135.831L114.978 137.136L111.165 143.402L129.738 158.431V170.436L135.618 176L138.979 170.436L143.715 164.135L147.081 153.922L145.935 147.193L148.24 146.976C148.251 147.436 148.249 147.9 148.234 148.367C148.653 148.073 154.599 149.728 153.112 152.264C153.786 152.851 154.197 153.76 154.279 154.642C159.202 154.394 168.808 160.297 173 163.209C175.457 165.162 176.786 167.978 177.774 170.887L178.007 171.597L178.247 172.326L178.489 173.054C179.826 177.056 181.27 181.021 183.225 184.775C183.267 184.779 183.309 184.786 183.351 184.792C184.647 183.654 186.251 184.748 187.681 184.874C188.096 184.479 188.772 184.379 189.136 184.916L189.161 184.955L171.336 188.468L159.577 229.733L149.336 221.417L143.84 222.235L129.324 227.472L112.441 231.86L73.8991 242.489H68.9909L40.4308 235.59L37.8569 234.74C38.7069 224.54 41.969 214.56 45.9832 205.183C47.1208 201.894 47.1992 198.212 48.2765 194.847C56.2451 159.03 72.6151 160.55 101.405 147.809C98.1849 144.819 106.042 136.229 106.757 137.136L106.802 137.132L106.9 137.126L107.025 137.122C108.149 137.089 112.021 137.114 112.439 137.161C112.681 136.69 112.946 136.247 113.232 135.831Z" fill="white"/>
<path fill-rule="evenodd" clip-rule="evenodd" d="M244.289 180.525L243.758 183.485C243.632 183.526 243.503 183.561 243.373 183.59C243.206 185.354 243.01 187.121 242.789 188.889L239.497 207.243C238.93 210.49 238.391 213.743 237.856 216.999L237.147 220.495L236.707 222.668C235.76 227.374 234.839 232.065 234.031 236.729C234.153 236.905 234.247 237.095 234.316 237.296L234.254 237.558L234.211 237.734L234.166 237.907C233.529 240.359 232.42 242.736 229.805 243.458C227.833 244.002 225.669 244.051 223.633 244.266L223.407 244.29L187.775 248.299C183.47 248.783 179.166 249.282 174.863 249.786L171.133 250.224C165.934 250.826 160.704 251.3 155.582 252.391C155.393 252.431 155.237 252.506 155.11 252.605C156.142 248.698 157.129 244.797 158.024 240.851C159.032 236.41 159.988 231.96 161.065 227.535C163.236 218.621 165.669 209.764 168.332 200.984C168.891 199.141 169.463 197.302 170.048 195.467L170.458 194.185L170.773 193.163C171.262 191.604 171.866 190.003 173.298 189.143C174.975 188.137 177.26 187.97 179.161 187.622L180.449 187.38C182.375 187.021 184.303 186.675 186.234 186.343C195.478 184.752 204.775 183.476 214.105 182.518C223.815 181.52 233.558 180.872 243.313 180.555L244.289 180.525ZM155.849 241.72L155.939 241.728L154.608 252.371C154.396 252.222 154.126 252.131 153.796 252.132C149.43 252.145 145.245 250.749 141.197 249.214L140.581 248.979L138.862 248.318C137.115 247.649 135.359 246.994 133.57 246.451L132.847 246.233L132.479 246.124C131.125 245.728 129.7 245.369 128.291 245.279L128.099 245.269L128.509 245.054C128.569 245.022 128.622 244.987 128.668 244.949C129.444 245.006 130.221 244.991 131.039 244.843C132.577 244.566 134.073 244.031 135.447 243.285L136.06 242.953L136.312 242.819L136.478 242.733L136.643 242.65C137.822 242.061 138.95 241.693 140.44 242.006C142.131 242.362 143.613 243.274 145.137 244.045L145.408 244.179L145.59 244.267L145.775 244.354L145.963 244.44C148.024 245.368 151.305 246.37 152.095 243.566C152.413 242.439 152.164 241.384 151.613 240.46C152.64 240.371 154.474 241.582 155.849 241.72ZM207.161 206.651L207.186 206.779C207.477 208.349 206.746 209.85 205.64 210.945C204.733 211.843 203.127 212.342 202.672 213.633C202.413 214.368 202.688 215.065 203.22 215.551L203.098 215.611L202.978 215.673L202.861 215.735L202.747 215.797L202.636 215.86C200.829 216.898 199.357 218.587 200.987 220.628C202.836 222.942 206.699 223.017 209.421 222.836L209.605 222.823C212.244 222.625 215.371 221.738 216.802 219.3C217.458 218.182 217.386 216.829 216.471 215.872C215.919 215.294 214.934 214.701 214.031 214.631C214.071 214.122 214.01 213.631 213.831 213.216C213.444 212.319 212.414 211.715 211.421 211.693C211.501 209.789 209.977 207.91 208.854 206.387L208.74 206.231L208.628 206.078C208.113 205.361 207.011 205.762 207.161 206.651ZM208.667 208.678L209.69 212.51L209.672 212.542C209.312 213.226 210.256 214.003 210.816 213.428L210.873 213.367C211.538 212.681 212.558 213.604 212.571 214.335C212.589 215.364 211.919 216.16 211.121 216.685L211.065 216.722L210.918 216.813C210.264 217.246 210.759 218.151 211.479 218.041C212.37 217.905 213.1 217.198 213.55 216.315C214.031 216.453 214.578 216.436 215.084 216.72C216.36 217.434 215.626 218.683 214.795 219.438L214.762 219.468L214.694 219.527C213.169 220.828 211.094 221.279 209.137 221.376L209.024 221.381C207.048 221.466 204.473 221.494 202.779 220.331C201.725 219.608 201.42 218.581 202.312 217.609C202.816 217.06 203.326 216.506 203.85 215.97C204.635 216.345 205.336 216.193 206.139 215.839C206.241 215.793 206.184 215.635 206.084 215.635C205.641 215.635 204.016 214.813 203.937 214.287C203.864 213.801 204.763 213.391 205.2 213.156L205.263 213.121L205.318 213.089C205.775 212.812 206.206 212.49 206.599 212.127C207.597 211.208 208.323 210.055 208.639 208.793L208.667 208.678Z" fill="white"/>
<path fill-rule="evenodd" clip-rule="evenodd" d="M112.987 135.25C113.883 132.997 116.914 133.873 116.576 136.24C116.374 137.658 115.597 139.156 114.9 140.399C114.332 141.411 113.684 142.398 112.806 143.157C114.369 144.616 115.992 146.022 117.656 147.357C119.472 148.813 121.381 150.156 123.354 151.389C125.085 152.471 126.894 153.43 128.525 154.665C130.041 155.813 131.423 157.193 132.126 158.995C132.875 160.915 132.55 162.897 131.998 164.814L131.935 165.031C131.371 166.931 130.396 169.222 131.748 171.012C132.437 171.923 133.438 172.569 134.302 173.297C135.07 173.945 135.792 174.649 136.453 175.405C137.895 177.054 139.067 178.91 139.807 180.977L139.874 181.165C140.508 182.995 140.972 185.237 140.114 187.034C139.869 187.549 139.075 187.382 138.938 186.88C138.626 185.744 138.643 184.554 138.381 183.402C138.11 182.203 137.658 181.066 137.067 179.99C135.925 177.908 134.377 176.129 132.549 174.626L132.002 174.181C130.576 173.01 129.266 171.768 128.976 169.83C128.667 167.757 129.497 165.782 130.031 163.82C130.403 162.452 130.524 161.142 130.122 159.906C129.631 160.708 128.961 161.469 128.431 162.148C127.375 163.501 126.309 164.846 125.247 166.193C124.157 167.574 123.094 168.978 122.082 170.417C121.629 171.061 121.181 171.709 120.735 172.357C120.399 172.845 119.931 173.332 119.565 173.829C119.654 174.095 119.647 174.401 119.486 174.619C117.545 177.242 114.785 171.769 114.065 170.386C112.599 167.57 111.507 164.579 110.036 161.764C108.512 158.845 106.776 156.005 104.842 153.341C103.671 151.729 102.36 150.215 101.289 148.553C98.7675 150.84 95.4489 152.374 92.4007 153.765C89.0516 155.292 85.5722 156.54 82.1385 157.866L81.1242 158.26C75.2077 160.57 69.1466 163.107 64.2288 167.21C58.45 172.032 55.0313 178.752 52.4862 185.711C49.5563 193.722 47.1324 201.95 44.8729 210.172C43.7167 214.379 42.6195 218.605 41.5881 222.844C40.6793 226.579 39.9259 230.351 38.8738 234.048C41.0076 233.972 43.4412 234.799 45.2629 235.037C53.5655 236.125 61.7564 237.858 69.595 240.858C70.5633 241.229 70.8434 242.196 70.6326 242.98C71.191 242.823 71.7489 242.663 72.3073 242.506C71.6955 241.568 71.9875 239.892 72.0356 238.852L72.0386 238.781C72.088 237.396 72.2382 236.01 72.3356 234.627C72.5211 231.992 72.7625 229.376 73.0835 226.756L73.1655 226.1C73.5293 223.25 73.7982 220.382 74.1952 217.537L74.2421 217.211C74.0517 216.483 73.8301 215.763 73.5975 215.047C72.9776 213.14 72.1028 211.345 71.3361 209.497C71.2457 209.28 71.5554 209.155 71.7001 209.285C72.9986 210.454 74.03 211.936 74.8586 213.487C74.8729 213.413 74.8856 213.34 74.9006 213.267L74.9951 212.801C75.2283 211.666 75.5119 210.471 76.2081 209.551C76.2823 209.453 76.4289 209.432 76.499 209.551C77.1654 210.679 77.24 212.107 77.3424 213.391C77.4584 214.843 77.473 216.313 77.4525 217.769C77.4126 220.614 77.2121 223.468 77.0524 226.309C76.8957 229.1 76.588 231.856 76.1914 234.62L76.116 235.139C75.9222 236.454 75.7635 237.787 75.5078 239.093L75.4355 239.449C75.2988 240.097 75.2148 241.011 74.9426 241.77C81.9436 239.816 88.9554 237.907 95.9805 236.032C101.058 234.676 106.141 233.341 111.221 231.997C111.489 231.514 111.823 231.062 112.24 230.659C113.612 229.329 115.431 228.736 117.1 229.759C117.235 229.843 117.247 230.055 117.1 230.136C116.78 230.311 116.46 230.49 116.145 230.677L119.196 229.85C121.476 229.232 123.783 228.46 126.117 228.029C130.416 225.906 135.039 224.37 139.568 222.852L140.101 222.672C142.42 221.881 144.818 220.996 147.214 220.557C148.967 220.236 151.026 220.623 151.731 222.421C152.624 223.009 153.464 223.701 154.275 224.382C154.861 224.873 155.422 225.396 155.994 225.905L156.099 225.997C156.566 226.403 156.936 226.674 157.051 227.319C157.11 227.653 156.898 228.103 156.487 228.059C155.23 227.924 154.208 226.466 153.355 225.596C152.696 224.923 152.032 224.227 151.431 223.488C151.081 223.679 150.6 223.644 150.377 223.222C149.22 221.03 146.051 222.549 144.297 223.068L141.785 223.812C140.53 224.185 139.274 224.559 138.021 224.94C134.576 225.986 131.149 227.157 127.673 228.118C127.984 228.46 127.941 229.068 127.35 229.3C124.63 230.368 121.645 230.92 118.818 231.653C117.034 232.116 115.25 232.582 113.467 233.05C113.162 233.546 112.942 234.106 112.849 234.759C112.509 237.158 113.165 239.925 113.804 242.246L113.901 242.592C114.426 244.457 115.199 246.744 116.808 247.922C117.201 248.209 117.701 248.409 118.205 248.454C121.354 246.833 124.503 245.211 127.654 243.593C128.238 243.293 128.777 243.699 128.908 244.181C130.019 243.999 131.128 243.712 132.138 243.369C133.834 242.792 135.159 241.693 136.749 240.933C139.827 239.462 142.969 241.269 145.724 242.642L146.359 242.954C147.595 243.554 150.165 244.706 150.758 243.066C151.332 241.479 149.519 239.783 148.348 239.069C146.952 238.218 145.327 237.762 143.75 237.382C142.849 237.165 141.938 236.989 141.021 236.859C139.98 236.713 138.906 236.735 137.904 236.397C137.406 236.23 137.33 235.439 137.904 235.309C139.446 234.958 141.286 235.34 142.895 235.732L143.736 235.939C145.357 236.337 146.994 236.836 148.471 237.63C149.544 238.208 150.677 239.085 151.418 240.158C152.061 239.561 152.861 239.581 153.694 239.803L154.147 239.929C154.894 240.136 155.499 240.278 156.226 240.135C156.323 239.606 156.422 239.076 156.527 238.547C157.563 233.345 158.699 228.163 159.952 223.008C162.114 214.117 164.616 205.324 167.437 196.62L167.72 195.75C168.37 193.76 168.894 191.591 169.943 189.762C170.934 188.033 172.524 187.037 174.412 186.509C176.554 185.91 178.806 185.597 180.992 185.193C181.479 185.103 181.968 185.017 182.456 184.929C182.044 184.184 181.736 183.338 181.459 182.689L181.41 182.577C180.814 181.218 180.279 179.835 179.762 178.444L179.376 177.399C178.443 174.882 177.48 172.406 176.168 170.051C174.787 167.573 172.955 165.548 170.671 163.871C166.015 160.452 160.404 158.708 155.888 155.055C155.703 154.905 155.94 154.649 156.128 154.744C159.177 156.276 162.469 157.319 165.64 158.566L166.266 158.813C168.773 159.807 171.318 160.89 173.488 162.499C175.907 164.294 177.812 166.523 179.244 169.173C180.656 171.786 181.558 174.711 182.554 177.501L182.82 178.245C183.222 179.36 183.637 180.472 184.112 181.557C184.49 182.418 185.194 183.402 185.514 184.386C186.389 184.234 187.265 184.081 188.142 183.935C207.127 180.764 226.326 178.9 245.566 178.355C246.319 178.334 246.708 179.053 246.598 179.709C244.751 190.632 243.11 201.592 241.31 212.523C240.524 217.294 239.722 222.062 238.902 226.826C238.486 229.24 238.006 231.645 237.612 234.063C237.295 236.015 237.064 237.983 236.518 239.89C236.029 241.6 235.278 243.249 234.045 244.554C232.716 245.96 230.86 246.641 228.993 246.963C224.252 247.779 219.389 248.112 214.609 248.656L189.163 251.552C189.535 254.933 189.562 258.262 189.392 261.683L189.295 263.55C189.215 265.052 189.12 266.556 188.904 268.043C188.634 269.908 187.781 271.487 186.525 272.879C185.372 274.159 183.971 275.25 182.608 276.296C181.193 277.382 179.732 278.43 178.068 279.101L177.852 279.187C176.393 279.757 173.656 280.639 171.661 280.317C171.922 281.624 172.427 283.029 171.979 284.322C171.772 284.922 170.987 285.222 170.506 284.711C169.554 283.698 169.479 282.361 169.254 281.04C169.019 279.665 168.816 278.286 168.637 276.903C168.289 274.229 168.018 271.531 167.936 268.834C167.851 266.065 167.883 263.292 168.033 260.526C168.109 259.106 168.204 257.686 168.385 256.275C168.462 255.673 168.54 255.07 168.63 254.47C168.663 254.251 168.699 254.033 168.738 253.816L166.454 254.073C162.952 254.465 159.448 254.818 155.921 254.873C155.504 254.879 155.182 254.689 154.972 254.412C154.749 254.776 154.359 255.037 153.801 255.035C148.876 255.017 144.289 253.405 139.809 251.507C137.551 250.549 135.328 249.513 133.067 248.564C130.956 247.678 128.7 247.045 126.64 246.047L121.227 248.888C121.187 249.027 121.137 249.159 121.082 249.27C120.73 249.99 120.035 250.38 119.326 250.674C118.644 250.957 117.939 251.045 117.252 250.973C113.147 253.125 109.041 255.275 104.932 257.42L100.822 259.563C92.6346 263.828 84.479 268.163 76.2396 272.327L75.633 272.633C72.7871 274.06 69.7311 275.508 66.5729 276.587C66.5167 277.387 66.5521 278.165 66.6191 279.011L66.6352 279.196C66.7294 280.196 66.9313 281.449 66.1292 282.162C65.7119 282.532 64.9666 282.533 64.6829 281.975C64.168 280.962 64.6302 279.366 64.7933 278.266C64.8512 277.875 64.9218 277.472 65.0262 277.082C61.4055 278.161 57.6751 278.684 53.9906 278.078C50.4033 277.489 47.6249 275.228 45.385 272.463C43.0212 269.545 41.3414 266.144 40.4401 262.498C39.4144 258.35 39.3474 254.066 39.3715 249.817C39.3971 245.292 39.5644 240.745 40.1145 236.25C39.5118 236.108 38.8433 235.986 38.2343 236.028C37.9326 236.511 37.3474 236.714 36.8186 236.652C35.6686 237.92 38.5854 239.217 39.5175 239.542C39.8412 239.655 39.8065 240.18 39.4332 240.165L39.1981 240.153C37.7578 240.077 36.2698 239.831 35.4229 238.492C34.7443 237.418 34.9482 236.147 35.7571 235.272C36.2914 230.218 37.5688 225.297 38.7576 220.367C39.9242 215.528 41.2216 210.72 42.5967 205.937L43.2132 203.796C45.3783 196.295 47.6414 188.734 50.6281 181.532C52.1194 177.935 53.8374 174.405 56.1662 171.269C58.337 168.346 60.8999 165.845 63.8458 163.708C69.3377 159.725 75.7819 157.319 82.1136 155.026L82.397 154.923C85.6782 153.736 88.9514 152.534 92.1952 151.248C95.064 150.11 97.8124 148.668 100.668 147.513C100.575 147.344 100.485 147.174 100.399 147.002L100.346 147.046C100.337 147.053 100.328 147.06 100.318 147.067C100.031 147.266 99.6086 147.168 99.3719 146.945C98.7038 146.314 98.93 145.614 99.376 144.96L99.434 144.877C99.9795 144.112 100.466 143.304 100.97 142.512L101.285 142.016C102.13 140.693 103.018 139.361 104.145 138.267C104.667 137.76 105.238 137.381 105.843 137.098C105.791 136.989 106.245 136.765 106.374 136.878C108.291 136.176 110.498 136.323 112.588 136.516M187.932 251.692L185.265 251.995C182.332 252.329 179.398 252.652 176.463 252.972L170.088 253.665C170.072 254.028 170.028 254.384 170.02 254.658C169.978 256.074 169.947 257.49 169.918 258.906C169.859 261.744 169.924 264.584 170.11 267.417C170.291 270.162 170.53 272.907 170.9 275.633L170.976 276.178L171.02 276.464C171.323 276.493 171.62 276.637 171.867 276.932C172.406 277.576 174.358 276.95 175.12 276.679C176.374 276.232 177.555 275.478 178.645 274.722C179.709 273.984 180.667 273.123 181.587 272.216L182.341 271.471C183.09 270.726 183.84 269.932 184.299 268.995C184.922 267.724 185.002 266.165 185.185 264.781C185.41 263.078 185.677 261.376 185.96 259.683M110.533 233.824L110.256 233.897C100.21 236.567 90.1791 239.316 80.1022 241.869C75.1155 243.132 70.105 244.304 65.1121 245.543L64.3038 245.745C60.3649 246.741 56.3788 247.94 53.3625 250.798C53.2512 250.903 53.0895 250.741 53.1943 250.63C56.4451 247.168 61.0685 245.702 65.5076 244.432C66.3282 244.197 67.1498 243.968 67.9706 243.734C61.9334 241.581 55.801 239.708 49.5269 238.372C47.9114 238.028 46.277 237.775 44.6627 237.43C43.5369 237.189 42.4374 236.841 41.3235 236.552L40.4473 236.331L40.4357 239.101C40.4211 243.025 40.428 246.946 40.6281 250.869L40.666 251.596C40.8995 255.961 41.2639 260.418 42.8126 264.535C44.0712 267.88 46.0771 271.031 48.7005 273.468C50.0279 274.701 51.455 275.661 53.219 276.134C54.857 276.574 56.5731 276.626 58.2569 276.509C66.3335 275.945 73.5229 271.556 80.5387 267.922C92.0141 261.978 103.491 256.037 114.978 250.116C114.667 249.904 114.375 249.659 114.109 249.384C112.569 247.793 111.756 245.614 111.222 243.504C110.654 241.258 110.315 238.851 110.275 236.533M125.149 252.411C125.25 252.356 125.368 252.424 125.372 252.539C125.408 253.417 124.923 254.282 124.561 255.073L124.522 255.157C124.082 256.137 123.6 257.103 123.102 258.054C122.106 259.954 121.071 261.834 119.99 263.688C117.818 267.416 115.403 270.987 112.549 274.234C111.905 274.967 110.845 274.027 111.258 273.237C113.253 269.431 115.578 265.837 117.971 262.274C119.169 260.49 120.366 258.705 121.576 256.929C122.081 256.188 122.592 255.45 123.117 254.723L123.434 254.288M244.294 180.535C234.213 180.84 224.144 181.498 214.111 182.528C204.78 183.487 195.483 184.763 186.239 186.353C184.308 186.686 182.38 187.031 180.454 187.391L179.298 187.608C177.372 187.973 175.019 188.124 173.304 189.154C171.496 190.239 171.007 192.507 170.405 194.378C169.698 196.577 169.008 198.783 168.338 200.995C165.674 209.775 163.241 218.631 161.07 227.546C159.993 231.971 159.037 236.421 158.03 240.862C157.135 244.808 156.147 248.709 155.116 252.615C155.243 252.516 155.399 252.441 155.587 252.401C160.71 251.311 165.939 250.837 171.138 250.234L171.641 250.176C177.02 249.543 182.399 248.915 187.78 248.31L223.413 244.301C225.514 244.065 227.765 244.032 229.81 243.468C233.287 242.509 234.102 238.62 234.686 235.523L234.703 235.429C236.462 226.072 237.862 216.634 239.503 207.253M155.945 241.738C154.561 241.647 152.668 240.379 151.618 240.47C152.169 241.395 152.418 242.45 152.101 243.576C151.217 246.711 147.22 245.089 145.295 244.132C143.717 243.346 142.193 242.385 140.445 242.017C138.466 241.6 137.125 242.388 135.452 243.296C134.079 244.041 132.583 244.576 131.044 244.854C130.226 245.001 129.449 245.017 128.673 244.959C128.627 244.997 128.574 245.033 128.514 245.064L128.104 245.279C129.959 245.364 131.849 245.937 133.575 246.461C135.364 247.005 137.12 247.659 138.867 248.329L140.586 248.99C144.825 250.614 149.213 252.156 153.801 252.142C154.131 252.142 154.401 252.233 154.614 252.382M148.205 231.916C149.572 231.749 150.833 231.928 151.925 232.818C153.242 233.891 154.127 235.671 156.02 235.788C156.572 235.822 156.701 236.598 156.152 236.761C154.742 237.178 153.601 236.415 152.641 235.425L151.996 234.75C151.047 233.767 150.172 233.007 148.561 233.066C146.837 233.129 145.11 233.528 143.397 233.73C141.456 233.96 139.516 234.156 137.569 234.324C137.478 234.332 137.463 234.19 137.548 234.169L139.728 233.626M146.886 226.326L147.111 226.304C149.096 226.111 150.911 226.103 152.683 227.171L153.023 227.377C154.621 228.349 156.36 229.494 157.36 231.067C157.523 231.324 157.253 231.627 156.979 231.562C155.059 231.101 153.655 229.691 152.039 228.636C150.227 227.452 148.354 227.647 146.287 227.831C144.286 228.009 142.286 228.254 140.305 228.588C138.443 228.901 136.575 229.395 134.694 229.553L134.695 229.549C134.48 229.549 134.357 229.226 134.576 229.117C136.485 228.163 138.696 227.712 140.772 227.276M78.9288 172.34C78.9262 172.183 79.147 172.125 79.2241 172.261C80.5154 174.533 81.1904 177.319 81.8783 179.823C82.5987 182.446 83.1803 185.095 83.7028 187.764C84.761 193.169 85.3249 198.542 85.3632 204.05C85.3684 204.837 84.0877 205.046 83.9624 204.24C83.1307 198.882 82.3338 193.519 81.4957 188.162C81.074 185.468 80.5832 182.784 80.1136 180.098M91.7122 176.299C91.6171 175.985 92.073 175.881 92.1896 176.167C94.781 182.531 95.6586 189.742 93.9949 196.456C93.7403 197.483 92.2367 197.038 92.4288 196.024M125.138 170.644C125.125 170.41 125.43 170.373 125.544 170.534C126.772 172.265 127.282 174.583 129.436 175.477C130.512 175.924 131.722 175.846 132.672 176.601C133.307 177.105 133.795 177.901 133.318 178.665C133.164 178.912 132.733 179.036 132.525 178.768C132.22 178.377 132.059 177.909 131.645 177.616C131.061 177.203 130.274 177.177 129.605 176.983C128.739 176.732 127.976 176.293 127.351 175.64M145.652 141.777C145.779 141.713 145.9 141.754 145.981 141.864C146.097 142.02 146.082 142.171 145.941 142.278C146.13 142.665 146.353 143.633 146.385 143.774C146.514 144.346 146.652 144.914 146.796 145.482C147.086 146.626 147.341 147.78 147.631 148.926C147.939 150.14 148.306 151.341 148.714 152.524C148.741 152.601 148.77 152.679 148.8 152.759L148.847 152.879L148.858 152.86C148.941 152.729 149.114 152.821 149.093 152.96C149.074 153.086 149.049 153.212 149.027 153.338L149.07 153.451C149.337 154.171 149.52 154.928 149.03 155.563C148.847 155.8 148.645 155.941 148.393 155.983C147.99 157.312 147.485 158.617 146.943 159.869L146.784 160.235C145.988 162.064 145.138 163.868 143.87 165.424C142.486 167.123 140.581 168.284 139.375 170.146C138.814 171.012 138.423 171.923 138.106 172.901L137.987 173.272C137.762 173.964 137.503 174.634 136.854 175.04C136.647 175.17 136.337 175.128 136.17 174.952C134.84 173.544 136.232 170.915 137.034 169.552C138.15 167.657 139.763 166.444 141.379 165.014C143.121 163.473 144.232 161.411 145.307 159.38C145.965 158.135 146.601 156.864 147.27 155.614C146.571 154.996 146.347 153.768 146.11 152.915L146.089 152.838C145.697 151.472 145.386 150.07 145.19 148.662C145.001 147.308 144.922 145.973 144.972 144.611L144.986 144.264M148.251 148.222C148.097 148.01 148.352 147.77 148.564 147.814C149.853 148.081 151.112 148.861 152.269 149.492L152.392 149.559C153.315 150.057 154.244 150.667 154.728 151.634C155.256 152.686 155.212 153.896 155.14 155.039L155.133 155.146C155.045 156.516 155.031 157.94 154.741 159.285C154.593 159.974 153.97 160.168 153.437 160.005C152.802 162.008 151.021 163.485 149.719 165.065C148.06 167.081 148.372 169.802 148.546 172.229C148.616 173.212 147.394 173.492 146.764 172.967L145.314 171.762C145.073 171.561 144.831 171.359 144.591 171.157C144.385 170.984 144.18 170.809 143.978 170.632L143.676 170.365C143.541 170.245 142.95 169.583 142.777 169.556C142.357 169.489 141.362 170.594 141.021 170.941L140.978 170.984C140.336 171.613 139.757 172.29 139.217 173.008C139.118 173.14 138.924 173.03 138.995 172.878C139.478 171.842 140.041 170.851 140.709 169.923L140.843 169.738C141.288 169.139 141.884 168.082 142.668 167.905C143.626 167.689 144.582 168.65 145.279 169.183L145.323 169.216C145.654 169.465 145.982 169.718 146.309 169.973C146.275 168.166 146.503 166.34 147.436 164.782C148.094 163.684 149.079 162.871 149.922 161.927C150.861 160.876 151.351 159.584 152.201 158.489C152.31 158.349 152.461 158.273 152.624 158.249C152.657 157.369 152.786 156.48 152.886 155.609L152.916 155.349C153.017 154.403 153.256 153.248 152.793 152.362C152.356 151.525 151.352 150.935 150.61 150.367L150.003 149.896M106.438 138.221C106.05 138.446 105.688 138.725 105.359 139.074C104.323 140.173 103.583 141.54 102.863 142.855C102.475 143.564 102.101 144.28 101.71 144.987C101.54 145.294 101.365 145.599 101.188 145.902C101.106 146.042 100.863 146.32 100.743 146.492C100.877 146.679 101.015 146.864 101.156 147.047C101.21 147.116 104.924 151.164 106.219 152.748C108.201 155.175 109.974 157.738 111.489 160.481C112.972 163.167 114.102 166.012 115.476 168.75C116.164 170.121 116.932 171.483 117.911 172.669C117.949 172.715 117.989 172.759 118.028 172.805C118.401 171.795 119.359 170.713 119.829 170.092L119.873 170.034C120.94 168.595 122.066 167.2 123.217 165.829C124.269 164.576 125.347 163.351 126.451 162.146L126.866 161.695C127.635 160.864 128.612 159.62 129.738 159.026C129.618 158.811 129.478 158.598 129.317 158.388C128.262 157.009 126.771 156.008 125.299 155.105L124.345 154.524C120.747 152.331 117.206 150.036 114.083 147.187C112.431 145.679 110.801 144.099 109.412 142.341L108.921 141.719M112.441 137.135C110.756 137.277 108.937 137.243 107.38 137.792C108.764 139.101 110.08 140.515 111.431 141.845C111.551 140.945 111.797 140.056 112.006 139.178" fill="black"/>
<path fill-rule="evenodd" clip-rule="evenodd" d="M110.107 51.5414C142.061 49.9661 163.742 75.2293 164.675 85.3035C165.323 92.2965 164.883 101.623 164.883 107.872C164.883 111.061 166.489 120.757 164.675 125.406C160.639 135.753 156.078 143.858 143.442 143.858C130.806 143.858 111.543 137.293 104.928 128.824C103.721 127.278 88.7133 115.96 88.7133 107.064C88.7133 88.0838 87.3063 52.6655 110.107 51.5414Z" fill="white"/>
<path fill-rule="evenodd" clip-rule="evenodd" d="M88.3078 31.0416C90.1289 30.4709 91.2911 31.2924 92.1203 32.5652C92.3031 32.5295 92.48 32.5318 92.6769 32.5794C92.7256 32.5912 92.8434 32.6358 92.9326 32.6709C93.0015 32.6998 93.0637 32.7349 93.1236 32.7721L93.1592 32.7533V32.7533C93.2959 32.6039 93.4394 32.4675 93.5944 32.3576C93.9427 32.1108 94.3015 32.0389 94.642 32.0897L94.7996 32.0315V32.0315C96.1476 31.5606 97.6091 31.7792 98.523 32.9433C98.6999 33.1682 98.8428 33.4186 98.9649 33.6828C99.2389 33.7728 99.4961 33.903 99.7177 34.0632C99.8733 33.9899 100.038 33.9282 100.214 33.8827C101.208 33.627 102.253 33.8684 103.063 34.4796C103.458 34.777 103.748 35.1494 103.969 35.5746C104.219 35.6336 104.467 35.7397 104.699 35.8821C104.898 35.7826 105.101 35.6892 105.309 35.6251C106.068 35.3914 106.882 35.3053 107.672 35.3643C109.375 35.4909 111.022 37.4406 109.884 39.1148L109.849 39.1654C109.704 39.3673 109.578 39.5759 109.462 39.7879C109.87 39.9656 110.262 40.2034 110.625 40.5014C112.398 41.9587 112.558 44.2053 112.226 46.3246L112.212 46.4129H112.216C113.159 46.5026 113.973 47.4893 113.416 48.4174L113.389 48.4608C112.635 49.6281 111.989 50.9176 111.269 52.1459C109.277 52.866 107.355 53.7528 105.546 54.8273C104.419 55.8169 103.347 56.8631 102.403 58.027C101.932 58.6082 101.499 59.2234 101.101 59.8613C101.419 60.0145 101.812 60.0067 102.145 59.6981C105.1 56.9525 108.671 55.0256 112.473 53.7342C112.747 53.641 112.926 53.4656 113.027 53.2581C114.715 52.776 116.433 52.4021 118.167 52.1375C118.645 51.6808 119.146 51.2441 119.622 50.7893C120.23 50.2089 120.991 50.2174 121.56 50.582C121.843 50.4529 122.132 50.3389 122.425 50.2365L122.607 50.1743C122.683 50.1493 122.755 50.1204 122.83 50.0975C124.865 49.4738 126.727 49.7054 128.729 50.2179L128.985 50.2848C129.919 50.533 130.506 50.4934 131.41 50.2649L131.512 50.2387C132.472 49.9876 133.499 49.8017 134.481 50.0661C135.508 50.3428 136.189 50.9582 136.889 51.7017L136.959 51.7765C137.285 52.1266 137.474 52.1648 137.901 52.1563L138.359 52.1427C140.086 52.0952 141.778 52.1682 143.072 53.5077C143.55 54.003 144.063 54.7041 144.371 55.3439L144.416 55.4394C144.43 55.4705 144.443 55.4965 144.455 55.5197C144.64 55.4897 144.929 55.372 145.067 55.3452C146.949 54.9791 148.52 55.5432 149.729 57.0305C149.993 57.3559 150.393 57.9951 150.67 58.3463C150.767 58.4288 150.858 58.5171 150.945 58.6099C151.399 58.9005 152.042 58.8821 152.551 58.984C153.938 59.2608 155.42 59.7896 156.126 61.1129C156.42 61.6652 156.529 62.2694 156.654 62.873C157.12 63.1801 157.485 63.6227 157.769 64.1018C158.114 64.6835 158.261 65.3959 158.658 65.9452C158.946 66.3442 159.387 66.5573 159.807 66.8012L159.967 66.8955C161.209 67.6373 162.182 68.4605 162.591 69.914L162.627 70.0433C162.693 70.2659 162.926 70.9013 162.723 70.8059C162.898 70.9024 163.195 70.9365 163.354 70.9893C164.216 71.2753 164.966 71.7373 165.425 72.5486C165.774 73.1662 165.838 73.8099 165.938 74.4907L165.98 74.7655C165.991 74.832 166.004 74.9093 166.018 74.9842L166.031 75.0578L166.034 75.0595C166.19 75.1271 166.343 75.2005 166.494 75.2795C167.209 75.7011 167.697 76.4331 167.697 77.2804C167.697 77.6916 167.569 78.0121 167.382 78.298C167.533 78.5271 167.65 78.7712 167.738 79.0432C167.912 79.5744 167.924 80.1551 167.865 80.7047C167.795 81.3641 167.627 81.9645 167.428 82.5943C167.351 82.8374 167.32 83.177 167.205 83.4091C167.418 83.6811 167.545 84.0136 167.505 84.3416C167.449 84.8108 167.235 85.3592 166.811 85.6224C166.604 86.6474 166.158 87.6949 165.719 88.5329C165.668 88.6301 165.607 88.7167 165.54 88.7886C165.601 92.1343 165.356 95.5034 165.339 98.8446C165.32 102.482 165.396 106.122 165.523 109.755C165.736 115.776 166.497 122.002 164.724 127.874C163.273 132.68 160.368 136.805 156.472 139.933C152.483 143.133 147.675 144.985 142.569 145.274C139.971 145.42 137.33 145.124 134.817 144.45L134.548 144.377C132.117 143.707 129.301 142.684 127.512 140.893C126.567 139.946 127.522 137.94 128.907 138.492C130.28 139.039 131.511 139.849 132.873 140.419C134.089 140.929 135.359 141.32 136.644 141.607C139.223 142.188 141.957 142.315 144.578 141.954C154.039 140.656 161.412 132.779 162.866 123.439C163.269 120.853 163.262 118.224 163.234 115.61L163.204 112.747C163.181 110.351 163.173 107.954 163.261 105.559C163.372 102.478 163.59 99.3984 163.881 96.3298L164.032 94.733C164.212 92.8647 164.415 90.9822 164.764 89.1394C164.478 89.1544 162.22 85.2833 160.968 83.1202C160.511 82.7567 160.124 82.305 159.975 81.7206C159.944 81.5987 159.928 81.4757 159.919 81.3524C159.647 80.924 159.36 80.5066 159.057 80.1017L158.991 80.0721C158.94 80.0488 158.901 80.0294 158.877 80.0163C158.217 79.6407 157.665 79.0718 157.287 78.4124C157.16 78.19 157.056 77.9579 156.971 77.7206C156.432 77.1907 155.869 76.6852 155.277 76.2111C155.219 76.1646 155.159 76.1211 155.1 76.0752C154.346 75.7933 153.685 75.3685 153.202 74.7566C153.001 74.6315 152.798 74.5089 152.593 74.3889C151.979 74.3832 151.358 74.2397 150.754 73.9909C149.65 73.5361 148.767 72.6372 147.658 72.2206C146.484 71.7804 145.247 72.7809 144 72.6004C143.682 72.5544 143.366 72.4573 143.073 72.3166C142.371 73.0622 141.626 73.7652 140.804 74.3804C139.611 75.2736 138.392 75.6817 137.01 76.0852C136.325 76.7368 135.558 77.3685 134.633 77.4613C132.492 79.1766 130.203 80.6235 127.794 81.9668C127.407 82.1828 127.021 82.2803 126.656 82.2828C125.9 82.7583 125.076 83.1242 124.204 83.3774C123.931 83.4566 123.65 83.4733 123.373 83.4393L122.617 84.0567V84.0567C122.091 84.4861 121.53 84.6914 120.993 84.7047C120.666 84.9555 120.327 85.1929 119.979 85.4211C119.605 85.6661 119.121 85.7675 118.635 85.738C117.891 86.4667 116.928 86.5432 116.121 86.2076C116.01 86.2727 115.896 86.3344 115.768 86.395C115.593 86.4777 115.412 86.5474 115.226 86.6039C114.385 87.5131 113.153 87.9899 111.919 87.8652C110.997 88.4312 109.924 88.7256 108.875 88.6595C108.715 89.4651 108.583 90.2738 108.471 91.0851L108.459 91.6795C108.458 91.7758 108.458 91.8509 108.459 91.9003L108.46 91.92C108.563 94.5257 108.619 97.1327 108.72 99.7389L108.729 99.9446C108.845 102.221 109.404 106.373 106.065 106.282C104.821 106.249 103.587 105.33 102.618 104.575L102.482 104.468C102.407 104.411 102.331 104.351 102.255 104.291C101.531 104.196 100.817 104.02 100.086 103.993C99.1835 103.961 98.2348 104.054 97.3557 104.259C95.804 104.621 94.3029 105.329 93.291 106.612C93.2025 106.724 93.1202 106.842 93.0422 106.96C92.9706 107.204 92.8483 107.428 92.6859 107.622C91.7288 109.78 92.2814 112.631 93.3395 114.605C94.6003 116.956 96.5953 118.582 99.104 119.4L99.2299 119.441C100.944 119.978 101.599 121.017 102.531 122.463C103.404 123.82 104.406 125.084 105.481 126.284C107.562 128.607 110.482 130.524 111.692 133.464C111.936 134.056 111.236 134.614 110.694 134.462C108.571 133.863 107.083 132.348 105.54 130.841C104.472 129.798 103.445 128.712 102.481 127.572C102.279 127.665 102.056 127.728 101.825 127.757C100.802 127.882 99.7476 127.83 98.8525 127.277C98.4399 127.315 98.01 127.171 97.6909 126.878C97.398 126.609 97.1455 126.317 96.9321 126.007C96.6079 126.035 96.2895 126.044 95.9857 125.993C95.8392 125.979 95.6973 125.941 95.5673 125.877C95.3256 125.782 95.0965 125.634 94.8861 125.408C94.4598 124.949 94.2964 124.301 94.3751 123.685C94.2907 123.668 94.207 123.646 94.1244 123.618C93.5569 123.425 93.12 123.043 92.8409 122.522C92.3415 122.242 91.8918 121.861 91.5513 121.456C91.1366 120.964 90.8238 120.409 90.6399 119.796C90.45 119.708 90.2655 119.605 90.0888 119.485C88.8228 118.627 88.098 117.014 88.5952 115.524L88.612 115.477C88.6373 115.41 88.683 115.295 88.7389 115.166C88.7309 115.061 88.7225 114.956 88.7168 114.851L88.6993 114.534V114.534L88.4457 114.426V114.426C87.1808 113.921 86.3257 113.241 86.1737 111.814C86.142 111.519 86.2563 111.218 86.4366 110.966L86.4357 110.887V110.887C86.3535 110.844 86.2753 110.801 86.2063 110.757C85.5167 110.315 85.093 109.524 85.1404 108.706C85.184 107.96 85.5962 107.365 86.0596 106.815L86.192 106.661C86.203 106.648 86.2153 106.634 86.2285 106.619L85.9221 106.523C85.7233 106.459 85.5413 106.396 85.4103 106.323C84.9035 106.038 84.4738 105.653 84.2088 105.164C84.1702 105.103 84.131 105.044 84.0956 104.979C83.7534 104.353 83.7087 103.551 83.9295 102.88C83.9556 102.8 83.9893 102.726 84.0239 102.651C83.0921 102.322 82.3746 101.642 82.2882 100.387C82.2543 99.8942 82.362 99.4028 82.5962 98.982C82.5444 98.6986 82.5336 98.4048 82.5671 98.1142C82.2393 97.8037 81.9846 97.4296 81.8708 96.9733C81.6555 96.1112 82.0496 95.291 82.6352 94.5388C82.4185 93.9441 82.4073 93.273 82.6548 92.6743C82.5595 92.3754 82.5054 92.0594 82.5024 91.735C82.4959 91.0166 82.7166 90.4166 83.0731 89.9062C82.572 89.292 82.334 88.4758 82.63 87.7109C82.8406 87.1673 83.0813 86.67 83.3588 86.2093C83.2131 85.8589 83.1283 85.4664 83.1283 85.027C83.1283 84.2365 83.4239 83.6103 83.8761 83.0978C83.6798 82.1617 84.0789 81.0217 84.9488 80.6095C85.2766 80.454 85.7155 80.2917 86.1992 80.1653C86.3807 79.5968 86.5702 79.0306 86.7703 78.4684C87.0855 77.5834 87.4245 76.7108 87.7837 75.8482C87.5769 76.0298 87.36 76.1991 87.1356 76.3525C86.4262 77.2567 85.4857 78.0399 84.6954 78.5085C83.1285 79.4376 81.3366 78.8864 80.5631 77.3319C79.8361 77.8759 78.9638 78.198 78.033 78.0879C76.9776 77.963 76.0127 77.2778 75.7491 76.209C75.711 76.0543 75.688 75.8871 75.6857 75.7189C75.0804 76.1509 74.4471 76.5485 73.7525 76.7761C72.8676 77.066 71.9645 76.3705 71.8477 75.504C71.8015 75.1605 71.8656 74.857 72.002 74.6006L71.9156 74.5666C71.9012 74.5606 71.887 74.5543 71.8728 74.5476C71.4087 74.3297 71.0485 73.9302 70.8773 73.4695C69.8725 73.8592 68.7222 73.4025 68.4035 72.2948C68.024 70.9781 68.001 69.6445 68.2981 68.3618C67.2334 67.5861 66.5398 66.2821 66.4218 64.9189C66.3355 63.9404 66.5685 63.037 66.979 62.2018C65.9721 61.8243 65.6259 60.5013 66.1045 59.5481C65.4688 59.1833 65.0544 58.4099 65.0451 57.6571C64.7611 57.226 64.6702 56.6707 64.9057 56.0485C65.2163 55.2287 65.8487 54.5429 66.5729 54.005C66.2571 53.4538 66.0225 52.8527 65.8768 52.2315C65.2768 52.0555 64.7925 51.569 64.6939 50.8383C64.5703 49.9223 65.1718 49.1458 65.9813 48.9408C66.0712 48.6618 66.1808 48.389 66.3163 48.1269C65.9158 47.1758 65.9748 45.9733 66.4913 44.9334C66.9488 44.014 67.693 43.4518 68.589 43.063C68.3613 42.281 68.6628 41.5011 69.4217 40.9199C70.3483 40.2095 71.3645 39.6666 72.4323 39.283C72.3374 38.01 72.8683 36.7064 74.1229 36.2626C74.4583 36.144 74.8074 36.1002 75.1622 36.1017C75.4198 35.5402 75.8497 35.0836 76.4107 34.6795C77.2596 34.0683 78.8461 34.4417 79.3169 35.4002L79.3399 35.4495C79.3639 35.5038 79.3898 35.5535 79.4145 35.6061C79.5094 35.1407 79.7312 34.7011 80.0877 34.3407C80.9788 33.4398 81.9197 33.4229 82.8252 33.8081C82.9913 33.3952 83.1924 33.0025 83.437 32.6434C84.3248 31.3406 85.7914 31.1747 86.8654 31.8802C87.2959 31.5008 87.7763 31.2083 88.3078 31.0416ZM94.6552 109.383C96.4427 108.681 98.6121 108.888 100.379 109.562L100.508 109.613C102.069 110.231 104.604 111.607 104.909 113.367C105.067 114.278 104.203 115.066 103.326 114.586C102.563 114.17 102.135 113.331 101.528 112.722C100.927 112.12 100.254 111.636 99.5209 111.211C97.9904 110.325 96.3816 109.981 94.6552 109.725C94.4612 109.698 94.5139 109.438 94.6552 109.383Z" fill="black"/>
<path fill-rule="evenodd" clip-rule="evenodd" d="M148.319 128.112C146.763 128.563 145.092 128.603 143.506 128.138C142.067 127.715 140.589 126.785 139.53 125.555C138.59 124.462 137.98 123.134 138.004 121.717C138.007 121.555 138.065 121.42 138.154 121.315C138.25 121.202 138.383 121.125 138.527 121.091C138.674 121.056 138.83 121.069 138.963 121.129C139.083 121.183 139.186 121.276 139.25 121.412C139.413 121.626 139.575 121.836 139.738 122.041C141.047 123.658 142.314 124.866 144.282 125.299C145.349 125.534 146.416 125.43 147.394 125.071C148.441 124.687 149.388 124.012 150.13 123.148C150.465 122.757 150.861 122.598 151.248 122.595C151.686 122.592 152.12 122.796 152.447 123.122C152.768 123.442 152.983 123.878 153.002 124.333C153.019 124.733 152.889 125.15 152.542 125.522C151.4 126.749 149.92 127.648 148.319 128.112ZM148.271 107.866C149.866 108.836 152.297 111.099 150.581 113.504C148.561 115.624 145.652 113.193 144.219 112.093C142.89 111.241 141.396 113.433 142.63 114.428C152.987 122.099 157.19 108.12 149.078 106.726C148.185 106.572 147.853 107.566 148.271 107.866ZM133.347 103.598C132.834 103.27 132.231 103.157 131.563 103.461C131.04 103.699 130.124 104.491 129.486 105.533C129.05 106.245 128.741 107.081 128.805 107.952C128.82 108.154 128.745 108.303 128.628 108.413C128.535 108.5 128.4 108.564 128.242 108.584C128.108 108.601 127.958 108.586 127.836 108.548C127.604 108.475 127.482 108.325 127.435 108.202C126.989 107.016 127.181 105.692 127.682 104.498C128.357 102.886 129.583 101.537 130.387 101.101C131.761 100.356 133.383 100.322 134.76 101.081C135.932 101.727 136.665 102.77 137.394 103.833C137.549 104.059 137.703 104.283 137.862 104.504C138.18 104.945 138.212 105.383 138.088 105.759C137.952 106.175 137.603 106.526 137.168 106.71C136.765 106.88 136.298 106.904 135.884 106.729C135.535 106.582 135.214 106.294 135.011 105.807C134.669 104.985 134.1 104.079 133.347 103.598V103.598ZM159.389 105.425C159.038 105.608 158.763 105.663 158.374 105.546C158.158 105.481 157.945 105.357 157.779 105.191C157.613 105.025 157.494 104.82 157.448 104.592C157.334 104.029 157.026 103.502 156.588 103.159C156.213 102.866 155.74 102.71 155.215 102.798C154.649 102.892 154.109 103.256 153.738 103.684C153.613 103.827 153.516 103.99 153.418 104.152C153.235 104.454 153.057 104.735 152.805 104.957C152.709 105.042 152.565 105.1 152.425 105.1C152.368 105.1 152.311 105.091 152.256 105.074C151.692 104.508 151.584 104.079 151.602 103.653C151.621 103.206 151.797 102.754 152.081 102.332C152.748 101.343 154.015 100.532 154.87 100.348C156.04 100.096 157.203 100.398 158.135 101.052C159.094 101.725 159.804 102.77 160.026 103.947C160.079 104.231 160.056 104.537 159.948 104.803C159.843 105.062 159.659 105.284 159.389 105.425ZM135.929 93.0476C135.226 93.7323 134.395 93.8383 133.554 93.9327C133.086 93.9856 132.713 94.0282 132.346 94.1111C131.337 94.339 130.34 94.6822 129.43 95.1764C128.478 95.6931 127.442 96.3163 126.696 97.1146C126.518 97.3045 126.351 97.5039 126.184 97.7036C126.031 97.8858 125.884 98.0612 125.729 98.2302C125.551 98.4245 125.382 98.628 125.214 98.831C125.11 99.0024 125.09 99.0445 125.069 99.0884C125.037 99.1543 125 99.228 124.959 99.3072C124.901 99.4155 124.834 99.5341 124.764 99.6417C124.647 99.8383 124.584 99.8924 124.53 99.9167C124.44 99.9568 124.355 99.9765 124.272 99.9658C124.194 99.9558 124.121 99.9185 124.049 99.8574C123.688 99.5526 123.582 99.0523 123.593 98.5213C123.609 97.7155 123.906 96.8233 124.18 96.2748C124.817 95.0004 125.7 93.6756 126.762 92.7245C127.974 91.6388 129.3 90.8169 130.823 90.2505C131.769 89.8984 132.865 89.5752 133.896 89.6161C134.638 89.6454 135.346 89.8661 135.931 90.4172C136.29 90.7556 136.463 91.2368 136.463 91.7176C136.463 92.2081 136.284 92.7014 135.929 93.0476ZM160.818 99.3173C160.773 99.3906 160.711 99.441 160.642 99.4714C160.57 99.5031 160.49 99.5123 160.413 99.4993C160.336 99.4863 160.263 99.4514 160.205 99.3981C160.149 99.347 160.107 99.2792 160.088 99.1962C159.621 97.1471 158.716 95.6225 156.783 94.6393C155.832 94.1557 154.739 93.8484 153.704 93.6034C153.403 93.5322 153.085 93.486 152.765 93.4393C151.762 93.2928 150.752 93.125 150.098 92.3139C149.704 91.8253 149.538 91.2004 149.632 90.629C149.72 90.0909 150.034 89.5976 150.606 89.3019C152.028 88.5662 153.795 89.2881 155.232 89.9031C155.338 89.9487 155.443 89.9935 155.545 90.0367C156.95 90.6298 158.231 91.4128 159.284 92.5325C160.12 93.4207 160.894 94.7339 161.206 96.0848C161.465 97.2087 161.404 98.356 160.818 99.3173Z" fill="black"/>
<path fill-rule="evenodd" clip-rule="evenodd" d="M129.449 129.598C131.16 125.59 134.893 122.644 139.191 121.566C142.347 120.777 145.66 120.803 148.877 121.116C150.563 121.279 152.371 121.412 153.96 122.038C155.317 122.573 156.422 123.585 157.254 124.772C158.243 126.179 158.916 127.789 159.389 129.439C159.456 129.674 159.519 129.91 159.578 130.148C159.372 131.393 158.936 132.453 157.783 133.235C156.658 134 155.316 134.313 153.978 134.424C153.847 134.361 153.72 134.296 153.604 134.229C151.518 133.035 150.051 130.213 147.419 130.595C145.07 130.936 143.524 133.893 142.127 135.626C137.644 136.149 133.164 134.801 129.516 132.236C129.33 131.359 129.32 130.473 129.449 129.598M162.625 126.557C162.266 125.551 161.815 124.575 161.279 123.657C159.509 120.619 156.792 118.198 153.566 116.814C145.934 113.546 136.06 115.85 129.897 121.211C127.792 123.044 125.663 125.737 125.019 128.634C124.827 128.672 124.646 128.772 124.496 128.913C120.044 126.108 115.458 123.41 111.87 119.523C109.265 116.698 107.452 113.355 106.342 109.682C106.252 109.38 105.764 109.424 105.779 109.759C105.783 109.837 105.787 109.915 105.792 109.993C105.745 109.849 105.526 109.923 105.509 110.063C104.912 114.525 104.165 119.256 104.853 123.741C105.264 126.418 106.48 128.377 108.104 130.493C109.845 132.761 111.815 134.87 113.83 136.893C115.109 138.177 116.444 139.658 118.01 140.6C119.831 141.694 121.896 142.525 123.84 143.369C125.816 144.23 127.823 145.026 129.867 145.716C133.954 147.099 138.178 148.056 142.476 148.475C145.917 148.809 149.85 149.173 153.148 147.878C155.675 146.886 157.716 145.092 159.334 142.933C161.096 140.583 162.488 137.905 163.258 135.082C164.058 132.149 162.794 127.03 162.625 126.557" fill="black"/>
<path d="M209.003 212.904C209.243 212.907 210.798 213.4 211.036 213.392C211.039 213.659 211.933 215.343 212.166 215.494C212.113 215.679 211.984 215.948 212.241 215.948C212.147 216.458 212.229 217.428 211.79 217.761C211.82 218.274 211.437 218.661 211.262 219.122C211.071 219.171 211.012 219.234 210.961 219.424C210.71 219.495 210.468 219.554 210.208 219.575C210.162 219.928 209.447 220.136 209.173 220.366C208.995 220.514 208.932 220.681 208.701 220.709C208.591 221.024 208.263 221.294 207.948 221.389L208.024 221.541C207.761 221.623 207.306 221.856 207.27 222.145C207.07 222.211 206.922 222.229 206.894 222.447C206.74 222.515 206.605 222.564 206.442 222.599C206.393 222.816 206.279 222.849 206.065 222.901C206.065 223.225 205.653 223.201 205.613 223.506C205.436 223.59 205.237 223.608 205.237 223.808L204.71 223.959C204.666 224.275 204.208 224.168 204.182 224.564C204.005 224.663 203.852 224.741 203.655 224.79C203.596 225.07 203.393 225.171 203.128 225.244C203.128 225.529 202.787 225.494 202.751 225.773C202.451 225.868 201.621 226.276 201.621 226.604C201.154 226.688 200.6 226.945 200.266 227.285C199.949 227.3 199.681 227.455 199.362 227.436C199.428 227.834 198.533 227.788 198.533 228.192H198.232L198.307 228.343H198.006L198.081 228.494H197.705C197.689 228.289 197.659 228.134 197.554 227.965C197.823 227.867 198.239 227.73 198.307 227.436C198.573 227.408 198.748 227.255 198.985 227.146C199.208 227.043 199.458 227.03 199.663 226.882C199.945 226.677 200.199 226.424 200.492 226.226C200.687 226.095 201.17 225.847 201.17 225.622C201.866 225.487 202.55 224.799 202.819 224.154C202.907 223.942 202.89 223.714 202.977 223.506L202.978 223.506C203.069 223.721 203.209 224.049 203.498 224.021C203.782 223.994 203.976 223.491 204.186 223.319C204.86 222.763 205.81 222.438 206.23 221.603C206.559 220.949 206.003 220.546 205.839 219.953C206.113 220.062 206.413 220.166 206.587 220.421C206.715 220.609 206.753 221.048 206.985 221.138C207.214 221.226 207.428 220.884 207.473 220.706C207.598 220.204 207.322 219.74 207.195 219.273C207.66 219.369 207.827 219.732 207.873 220.18C208.045 220.176 208.027 220.159 208.024 220.331L208.551 220.104C208.603 219.896 208.726 219.764 208.826 219.574C209.037 219.174 209.119 218.045 208.551 217.913V217.535H208.852L208.777 217.61C208.98 217.733 209.134 217.884 209.304 218.139C209.492 218.422 209.325 218.67 209.605 218.895L209.681 219.046C209.937 219.123 210.24 218.512 210.434 218.366C210.868 218.039 211.166 217.508 211.262 216.93L211.413 216.855C211.491 216.745 211.321 216.653 211.338 216.552C211.347 216.493 211.475 216.384 211.488 216.325C211.52 216.184 211.509 215.94 211.488 215.796L211.338 215.721C211.306 215.663 211.365 215.555 211.338 215.494C211.194 215.171 210.97 215.078 210.735 214.889V214.738L210.584 214.814V214.512L210.434 214.587C210.38 214.289 210.235 214.038 210.133 213.756L209.982 213.831C209.619 213.201 208.46 213.233 207.948 213.68C207.824 213.694 207.824 213.691 207.722 213.756C207.539 213.77 207.484 213.788 207.346 213.907L207.12 213.831C207.09 214.049 206.826 214.127 206.648 214.267C206.258 214.575 205.839 214.845 205.689 215.343L205.613 215.267C205.437 215.489 205.237 215.802 205.237 216.099C205.433 216.135 205.465 216.135 205.463 216.325C205.679 216.361 205.85 216.368 206.065 216.325C206.271 216.479 206.421 216.457 206.668 216.401L206.894 216.628L206.517 216.855C206.343 216.689 206.288 216.689 206.065 216.779C205.765 216.615 205.502 216.637 205.237 216.855C204.958 216.868 204.739 216.975 204.484 217.081C204.444 217.303 204.403 217.344 204.182 217.384C204.156 217.585 204.155 217.686 203.956 217.686C203.934 217.848 203.78 218.115 203.839 218.269C203.933 218.516 204.493 218.5 204.71 218.517C204.505 218.789 204.102 218.824 203.809 218.996C203.293 219.298 202.821 219.713 202.45 220.18L202.299 220.104L202.224 220.634C202.629 220.815 203.09 220.98 203.128 221.465C202.953 221.368 202.783 221.177 202.587 221.13C201.814 220.942 201.472 222.114 201.019 222.447C201.034 222.587 201.034 222.686 201.019 222.825C200.914 222.775 200.882 222.753 200.793 222.674L200.718 222.977L200.416 222.825C200.706 222.111 200.998 221.403 201.339 220.709C201.495 220.39 201.771 220.067 201.847 219.727L201.923 219.651C202.238 219.686 202.332 219.286 202.475 219.046C202.846 218.423 203.098 217.728 203.429 217.081C203.554 216.838 203.956 216.693 203.956 216.477H204.258C204.278 216.111 204.442 215.881 204.617 215.569C205.021 214.844 205.505 214.179 206.187 213.696C206.538 213.447 206.968 213.307 207.27 213C207.503 213.02 207.619 213 207.798 212.849C208.197 212.93 208.598 212.898 209.003 212.904Z" fill="black"/>
<path d="M200.755 222.747L200.68 223.046C200.36 222.849 200.211 223.128 200.032 223.38C199.753 223.772 199.387 224.242 199.014 224.544C199.014 224.678 199.015 224.658 199.089 224.768C198.837 224.871 198.684 225.039 198.484 225.218C198.372 225.701 197.886 225.974 197.802 226.491C197.724 226.376 197.741 226.386 197.651 226.341C197.425 226.621 196.966 226.981 196.893 227.314C196.542 227.412 196.308 227.638 196.212 227.988C195.929 228.026 195.787 228.491 195.663 228.737C195.436 229.187 195.237 229.661 195.153 230.16C195.093 230.514 195.138 230.869 195 231.208H195.303C195.327 231.016 195.871 230.486 196.06 230.459C196.154 230.266 196.215 230.042 196.439 230.01V229.71C196.638 229.647 196.678 229.607 196.742 229.411C196.887 229.506 196.824 229.506 196.969 229.411C196.987 229.238 197.018 229.198 197.196 229.186L197.272 229.111L197.196 228.962C197.409 228.87 197.552 228.738 197.726 228.587C197.678 228.407 197.643 228.25 197.651 228.063C196.997 228.335 196.631 229.008 195.984 229.261L196.212 228.662C196.547 228.662 196.564 228.183 196.893 228.138C197.103 227.843 197.5 227.59 197.575 227.239C197.877 227.239 197.954 227.125 198.029 226.865L198.181 226.79C198.281 226.641 198.279 226.425 198.408 226.266L198.484 226.341C198.484 226.087 198.594 226.009 198.711 225.817L198.786 225.892C198.817 225.71 198.825 225.619 199.014 225.592C199.135 225.292 199.379 225.08 199.468 224.768C199.851 224.768 199.909 224.076 200.301 224.02C200.381 223.783 200.35 223.676 200.528 223.72C200.559 223.539 200.566 223.448 200.755 223.421V223.121L200.907 223.196C200.888 223.01 200.863 222.9 200.755 222.747Z" fill="black"/>
<path d="M210.156 212.269C210.14 211.975 210.173 211.676 210.202 211.384C210.251 210.895 210.316 210.41 210.383 209.924" stroke="black" stroke-width="2" stroke-linecap="round"/>
<path d="M210.971 212.795C210.886 212.715 210.964 212.427 210.982 212.365C211.099 211.955 211.295 211.534 211.489 211.162C212.197 209.8 211.932 210.447 212.737 209" stroke="black" stroke-width="2" stroke-linecap="round"/>
<path d="M211.669 214.008C211.899 213.882 212.092 213.742 212.27 213.542C212.372 213.428 212.469 213.309 212.551 213.18C213.06 212.384 212.548 213.058 213 212.206" stroke="black" stroke-width="2" stroke-linecap="round"/>
</svg>
