<svg width="259" height="324" viewBox="0 0 259 324" fill="none" xmlns="http://www.w3.org/2000/svg">
<path fill-rule="evenodd" clip-rule="evenodd" d="M245.861 194.94C248.025 193.81 250.138 192.583 252.217 191.305C253.682 190.428 252.385 188.221 250.883 189.018C250.115 189.426 249.35 189.838 248.583 190.244C249.187 189.723 249.747 189.157 250.249 188.539L250.215 188.504C252.151 186.769 249.664 183.495 247.462 184.92C245.52 186.328 243.561 187.765 241.332 188.692C236.715 190.651 231.623 190.975 226.668 191.031C224.855 190.895 223.123 191.209 221.363 191.559C222.053 188.791 223.779 186.701 224.695 184.019C225.371 181.312 221.465 179.468 220.08 182.07C219.741 182.709 219.417 183.356 219.1 184.005C216.108 186.728 211.112 186.488 208.095 189.411C206.376 190.937 205.535 193.008 205.202 195.086C204.977 196.498 205.327 197.912 204.474 199.162C200.351 204.997 193.835 214.22 190.526 220.641C188.183 205.382 181.927 186.509 175.464 172.556C173.327 168.094 170.882 163.734 167.672 159.951C168.036 158.69 166.752 156.451 165.935 157.14C163.422 154.069 158.979 153.273 155.406 151.746C150.584 149.684 146.583 145.395 144.616 140.522C142.089 131.241 135.867 130.062 127.239 130.472C118.982 130.462 112.873 133.995 111.071 142.404C107.411 148.786 98.769 147.731 92.5516 149.42C87.995 150.462 83.573 152.072 79.3704 154.115C74.6953 149.679 57.9513 168.298 56.4293 173.09C57.3253 173.263 58.2158 173.472 59.0983 173.727C59.8842 173.955 59.5542 175.142 58.7615 174.952C57.7751 174.715 56.7823 174.552 55.7849 174.439C55.7545 174.534 55.7279 174.629 55.708 174.723C55.5961 174.715 55.4843 174.706 55.3723 174.698C55.6206 174.827 55.8595 174.977 56.0923 175.171C56.6552 175.638 55.9225 176.541 55.3244 176.168C54.7609 175.746 54.023 175.813 53.3471 175.671C53.307 177.062 48.3479 175.506 47.5776 175.045C44.154 174.617 40.632 175.077 37.4359 173.425C33.1833 172.529 28.8988 171.538 24.694 170.397C23.5808 170.831 22.5346 172.385 23.4187 173.525C23.9161 174.044 23.2768 174.891 22.6506 174.522C20.5504 173.285 18.9261 171.355 17.5491 169.275C16.9009 168.621 15.7504 168.762 14.8795 168.49C14.7631 168.7 14.6944 168.933 14.6955 169.172C11.0015 169.78 13.6366 173.816 15.4937 175.074C14.5085 175.716 14.4711 176.972 14.5573 178.022C14.3486 178.395 14.2789 178.859 14.4606 179.278C15.1552 180.879 16.6575 182.228 17.7999 183.525C19.0611 184.958 20.1857 186.399 21.7204 187.56C27.5699 192.021 34.629 194.515 41.8709 195.49C44.4422 195.885 48.1409 196.49 49.733 198.665C49.3423 201.246 48.6251 203.722 47.9744 206.239C47.0644 209.581 47.1263 213.079 47.1143 216.485C46.9871 216.383 46.7429 216.404 46.7066 216.599C46.4949 218.011 46.3375 219.455 45.4795 220.641C44.7274 222.848 44.2269 225.201 43.9457 227.519C42.8192 238.508 42.5503 249.822 45.0902 260.64C46.0702 264.653 47.6642 268.467 49.8361 271.979C50.4836 273.027 51.5247 273.334 52.4596 273.128C55.5885 274.754 59.5301 275.275 62.9025 274.862C74.3999 271.606 70.3939 279.447 86.5142 277.046C114.34 273.5 142.46 280.468 170.227 276.377C170.91 281.661 179.863 280.145 182.972 277.911C192.296 270.977 196.926 249.023 201.605 237.886C204.822 229.108 210.208 213.56 217.262 207.669C219.377 206.015 221.933 205.143 224.491 204.44C234.038 201.979 243.622 199.652 253.186 197.259C254.809 196.859 254.517 194.092 252.782 194.27C250.481 194.505 248.171 194.718 245.861 194.94Z" fill="white"/>
<path fill-rule="evenodd" clip-rule="evenodd" d="M33.3368 193.294C32.6904 193.214 32.0566 192.984 31.427 192.802C30.4657 192.521 29.5235 192.193 28.596 191.819C26.6819 191.052 24.8249 190.145 23.084 189.036C20.272 187.241 17.7875 184.942 15.9136 182.173L15.7849 181.98C14.7151 180.35 12.7417 176.73 14.9544 175.492C13.5283 174.3 12.1804 172.159 12.2565 170.507C12.3642 168.169 15.229 168.201 16.71 169.192C17.6797 169.841 18.4065 170.75 19.1354 171.644C19.9424 172.637 20.8044 173.584 21.7002 174.495C21.9378 174.736 22.1779 174.972 22.4221 175.204L22.6677 175.435C22.6297 175.344 22.5959 175.251 22.5664 175.156C22.072 173.616 22.6614 171.61 24.2016 170.904C25.1441 170.472 26.1229 170.736 27.0362 171.103L27.1762 171.16C28.4058 171.669 29.6502 172.119 30.9304 172.481C36.1487 173.954 41.5952 174.199 46.9424 174.934C49.0023 175.22 51.1002 175.579 53.1495 176.107C53.9311 172.787 55.8473 169.604 57.9262 166.986C67.8811 154.459 84.2987 150.319 99.3177 147.639C100.687 147.396 101.821 149.209 102.618 148.78C104.128 147.968 105.457 146.819 106.623 145.569C109.11 142.904 110.874 139.77 112.947 136.801C113.971 135.334 116.329 136.646 115.378 138.221L114.913 138.99C112.995 142.142 110.871 145.391 108.121 147.835C106.659 149.133 105.037 150.158 103.182 150.798C101.777 151.282 99.8058 151.69 98.2678 151.221L98.0832 150.952C98.1443 151.042 98.2058 151.131 98.2678 151.221C102.282 157.039 107.318 161.964 112.625 166.611C117.982 171.3 123.761 175.498 129.575 179.604L130.059 179.945C139.53 173.035 147.531 164.02 153.144 153.721C151.968 153.58 150.804 152.825 149.798 152.263C148.588 151.583 147.449 150.771 146.561 149.689C144.628 147.332 144.88 144.295 144.531 141.435C144.51 141.258 144.745 141.213 144.852 141.302C145.9 142.173 146.268 143.6 146.705 144.832C147.187 146.187 147.732 147.303 148.837 148.256C149.866 149.144 151.121 149.796 152.34 150.378C152.968 150.676 156.089 151.442 156.445 152.077C161.836 150.811 167.088 152.998 171.083 156.689C174.943 160.254 177.776 164.889 180.278 169.465C182.946 174.347 185.133 179.436 187.017 184.667C188.927 189.976 190.391 195.402 191.196 200.99C191.875 205.701 192.292 210.486 192.562 215.25L192.595 215.846C196.583 209.583 200.671 203.386 204.844 197.245C203.895 194.71 204.945 192.124 206.722 190.166C208.691 188 211.414 186.994 214.019 185.823L214.362 185.668C215.617 185.095 216.868 184.464 217.953 183.606C218.997 182.778 219.764 181.636 220.862 180.873C222.459 179.762 225.358 179.998 225.432 182.427C225.47 183.761 224.897 185.223 224.373 186.421C223.78 187.776 222.979 189.004 222.028 190.133C221.984 190.185 221.936 190.227 221.888 190.26L221.851 190.283C223.165 190.5 224.49 190.676 225.84 190.737C228.563 190.862 231.316 190.661 233.982 190.086C236.711 189.499 239.357 188.543 241.811 187.212C243.909 186.075 245.853 184.604 248.236 184.257C248.456 184.223 248.678 184.202 248.906 184.189C249.286 184.168 249.666 184.616 249.516 184.992C249.434 185.2 249.347 185.405 249.252 185.612C248.428 187.427 247.165 189.188 245.588 190.525L245.466 190.627C246.022 190.435 246.569 190.219 247.108 189.976C250.275 188.55 253.148 186.394 256.543 185.527C256.704 185.485 256.866 185.447 257.029 185.411C258.079 185.185 258.633 186.326 258.016 187.108C257.916 187.235 257.817 187.36 257.714 187.484C256.199 189.365 254.528 191.111 252.685 192.679C252.054 193.216 251.403 193.736 250.74 194.233C250.46 194.443 250.179 194.649 249.895 194.852L249.755 194.951C250.087 194.717 250.414 194.478 250.74 194.233C252.818 193.603 254.868 192.857 256.873 192.031C257.669 191.703 258.288 192.51 258.373 193.174C258.656 195.397 256.188 197.006 254.583 198.075C252.973 199.149 251.2 199.965 249.385 200.62C245.896 201.881 242.231 202.454 238.572 202.967L236.795 203.215C229.76 204.199 222.413 205.376 217.366 210.851C214.537 213.92 212.623 217.733 210.871 221.484C209.122 225.232 207.586 229.078 206.128 232.946C204.618 236.949 203.302 241.026 201.903 245.069C200.618 248.781 199.084 252.446 197.565 256.074L197.325 256.647C194.099 264.357 190.245 271.619 184.875 278.056C183.99 279.119 182.559 277.611 183.377 276.558C188.995 269.313 192.903 260.764 196.129 252.236C197.597 248.356 198.827 244.382 200.238 240.48L201.078 238.163C202.199 235.073 203.33 231.987 204.51 228.922C206.004 225.043 207.645 221.212 209.523 217.505L209.723 217.114C211.561 213.538 213.746 210.013 216.753 207.307C222.165 202.433 229.367 201.264 236.33 200.338L238.52 200.049C241.464 199.658 244.416 199.226 247.279 198.439C248.931 197.987 250.545 197.407 252.062 196.608C252.666 196.291 253.256 195.943 253.826 195.562C252.199 196.04 250.549 196.431 248.87 196.737C248.048 196.887 247.235 197 246.423 197.078C244.334 197.285 242.261 197.276 240.121 197.164C239.94 197.154 239.881 196.868 240.075 196.832C241.565 196.567 243.057 196.236 244.543 195.876L244.989 195.767C244.997 195.52 245.095 195.258 245.297 195.009C246.037 194.108 247.442 193.647 248.416 193.011C249.436 192.345 250.425 191.627 251.367 190.857C252.229 190.154 253.057 189.41 253.854 188.632L254.093 188.397C254.013 188.476 253.934 188.554 253.854 188.632C251.703 189.626 249.664 190.9 247.419 191.686C245.633 192.314 243.761 192.736 241.873 192.887L241.755 192.896L241.638 192.903C239.667 193.045 237.683 192.988 235.742 193.415C235.524 193.464 235.457 193.172 235.651 193.089C237.347 192.384 239.111 192.111 240.895 191.781C240.933 191.642 241.03 191.517 241.199 191.437L241.655 191.219C243.014 190.566 244.28 189.907 245.409 188.848C246.406 187.911 247.237 186.817 247.86 185.603C245.365 186.151 243.174 188.042 240.905 189.105C238.433 190.266 235.818 191.098 233.13 191.572L232.824 191.625C227.802 192.463 221.763 192.356 217.264 189.744C217.121 189.659 217.224 189.467 217.372 189.49C218.648 189.699 219.911 189.947 221.175 190.166C220.928 189.94 220.818 189.534 221.103 189.209C222.238 187.908 223.135 186.421 223.709 184.794L223.818 184.476C224.083 183.722 224.529 182.55 224.073 181.869C223.638 181.22 222.614 181.309 222.001 181.583C220.727 182.158 219.88 183.594 218.806 184.46C217.636 185.407 216.305 186.108 214.942 186.736L214.655 186.867C212.298 187.928 209.779 188.82 207.926 190.693C206.929 191.699 206.071 192.956 205.784 194.366C205.653 195.013 205.653 195.678 205.826 196.319C205.964 196.82 206.251 197.129 206.086 197.638C205.871 198.295 205.108 199.081 204.715 199.667C204.259 200.343 203.804 201.021 203.35 201.7C202.444 203.057 201.542 204.418 200.64 205.777C198.835 208.499 197.05 211.234 195.28 213.977C194.704 214.87 194.129 215.765 193.557 216.66L192.7 218.003L192.247 218.712L191.475 219.927C191.502 220.039 191.5 220.157 191.464 220.26C191.333 220.636 191.086 220.892 190.78 221.078L190.725 221.11C186.216 228.239 181.78 235.414 177.299 242.56C177.06 244.741 176.836 246.924 176.642 249.108C176.2 254.049 175.898 259.003 175.801 263.964C175.754 266.365 175.947 268.78 176.05 271.179C176.101 272.324 176.17 273.467 176.261 274.611L176.327 275.421C176.417 276.534 176.467 277.64 176.067 278.701C175.712 279.633 174.63 279.842 173.99 279.132C165.639 278.796 157.281 278.54 148.923 278.382C133.964 278.094 118.997 278.139 104.035 278.428C96.5206 278.574 89.0037 278.779 81.491 279.033C77.7896 279.155 74.0861 279.329 70.3825 279.38C68.3872 279.407 65.2468 278.68 65.0858 276.434L65.0818 276.366C64.8326 276.433 64.5748 276.488 64.3107 276.528C64.1932 276.546 64.0802 276.541 63.9759 276.517L63.9241 276.503C60.9497 277.41 57.1873 276.116 54.361 275.362L54.1277 275.3C51.4298 274.597 49.2622 273.591 47.4939 271.354C44.3988 267.438 43.3425 262.18 42.7932 257.333C42.2777 252.773 42.2481 248.127 42.8755 243.575C42.5058 239.866 42.8671 236.038 43.2875 232.35C43.4945 230.526 43.7375 228.704 44.0291 226.891C44.1917 225.878 44.4051 224.876 44.6227 223.877C44.7096 223.477 44.7819 223.047 44.8921 222.632L44.9417 222.454C44.6037 222.499 44.234 222.425 43.8769 222.228C43.0276 221.761 42.7804 220.816 42.7656 219.912C42.7192 217.185 43.0445 214.381 43.3318 211.671C43.6213 208.966 44.0185 206.25 44.5382 203.579L44.6727 202.89C45.0665 200.892 45.5171 198.829 46.3107 196.951C43.3298 196.444 40.3573 195.905 37.465 194.987C36.0537 194.537 34.6636 193.977 33.3368 193.294ZM188.927 221.668C188.88 221.679 188.836 221.691 188.792 221.704C187.6 222.038 186.396 222.321 185.196 222.626C183.121 223.148 181.093 223.731 179.164 224.638C178.76 229.74 178.161 234.825 177.592 239.913L177.478 240.931C178.353 239.307 179.249 237.697 180.185 236.106C183.035 231.255 185.95 226.443 188.927 221.668ZM45.6685 222.173C45.6748 222.78 45.5481 223.41 45.4805 223.993C45.3706 224.94 45.2819 225.891 45.1699 226.838C44.9417 228.74 44.7474 230.644 44.6058 232.555C44.515 233.774 44.4558 234.998 44.403 236.222C45.6009 231.743 47.1875 227.362 48.696 222.974C48.4438 222.948 48.1861 222.886 47.9202 222.815L47.4726 222.695C47.2087 222.627 46.3525 222.416 45.6685 222.173ZM192.7 218.003L192.709 218.204C192.74 218.916 192.314 219.318 191.796 219.422C192.096 218.948 192.398 218.475 192.7 218.003ZM55.6297 184.247C56.891 184.358 58.1269 184.627 59.3058 185.092L59.4195 185.136C60.2915 185.473 61.5664 185.896 61.8516 186.827C61.9318 187.091 61.7164 187.309 61.4692 187.33C60.5227 187.406 59.4072 186.392 58.5304 186.049C57.5544 185.669 56.5318 185.386 55.4966 185.236C53.1706 184.895 50.7452 185.153 48.5565 186.001C48.4276 186.052 48.3473 185.846 48.4635 185.785C50.6692 184.585 53.122 184.025 55.6297 184.247ZM28.9023 190.291C28.7565 190.162 28.6107 190.027 28.467 189.892C27.3343 188.82 26.3313 187.569 25.5886 186.194L25.3932 185.822C24.7883 184.65 24.0455 182.981 25.467 182.137C26.3163 181.632 27.3389 181.759 28.2853 182.065C28.3466 182.084 28.4079 182.106 28.4691 182.127C28.8917 182.275 29.2994 182.452 29.6628 182.621C31.241 183.346 32.6332 184.401 34.091 185.331C35.6705 186.339 37.2301 186.984 39.0531 187.361L39.2248 187.396C40.9361 187.734 42.791 187.951 43.9846 189.359C44.2846 189.714 44.01 190.38 43.4924 190.204C40.1924 189.091 36.7001 188.845 33.6706 187.017C32.4156 186.261 31.2283 185.392 29.9459 184.676C29.2656 184.295 28.5633 183.962 27.8148 183.734L27.4059 183.613C27.1663 183.543 26.8804 183.474 26.6882 183.543C26.3222 183.67 26.439 183.866 26.5522 184.208L26.5635 184.242C27.453 186.994 29.9882 189.298 32.3375 190.822C32.8762 191.172 33.4276 191.494 33.9896 191.792C37.7935 193.82 42.0499 194.764 46.2303 195.885C46.2303 195.885 48.6474 196.56 49.4481 196.813C50.3396 196.739 51.3558 197.054 52.0277 197.431C52.6805 197.796 53.2065 198.287 53.6037 198.864C53.6037 198.864 53.9861 199.183 54.0558 199.677C54.2565 200.136 54.3917 200.63 54.4594 201.146C54.4974 201.448 54.4213 201.681 54.2777 201.846C54.7098 208.48 52.9183 215.078 50.8986 221.383L50.6985 222.005L50.5699 222.399C48.3917 229.084 45.8925 235.721 44.777 242.691C44.0312 247.347 44.0544 252.166 44.6016 256.843L44.6402 257.166C45.1793 261.588 46.2166 266.549 49.0277 270.108C50.4615 271.924 52.1602 272.731 54.332 273.316L54.4509 273.348C56.4157 273.865 58.4439 274.599 60.4699 274.821C62.3502 275.026 63.9263 274.326 65.6185 273.671L65.6206 273.669C69.1847 270.513 70.803 265.919 71.9988 261.281C75.0981 249.281 74.7136 236.824 72.9558 224.648C72.0389 218.287 70.7924 211.98 69.5502 205.675C68.9291 202.524 68.2593 199.379 67.7037 196.217L67.3737 194.357C67.1916 193.323 67.0155 192.288 66.865 191.249C66.6622 189.852 66.6009 188.478 66.5312 187.072C64.8241 184.242 62.346 181.911 59.4748 180.239C57.4192 179.041 55.2431 178.21 52.9974 177.608C46.5769 175.877 39.5776 176 33.1171 174.668C30.9467 174.221 28.8865 173.558 26.8274 172.763L26.5466 172.654C25.6023 172.286 24.6389 172.081 24.1699 173.195C23.8361 173.988 24.0347 174.812 24.5354 175.478C25.7628 177.109 28.2304 177.866 30.0875 178.453C31.2051 178.809 32.3459 179.09 33.4994 179.299C34.653 179.508 35.8107 179.561 36.9178 179.969C37.3445 180.125 37.429 180.804 36.9178 180.924C35.5149 181.252 34.1037 180.971 32.7093 180.698C31.1776 180.396 29.6692 179.967 28.203 179.424C27.9325 179.324 27.6527 179.219 27.3676 179.107L27.153 179.022C27.3748 179.183 27.5966 179.341 27.8206 179.5C27.8797 179.542 27.8438 179.654 27.7656 179.626C24.3182 178.34 21.1814 176.018 18.7513 173.272L18.6304 173.134C17.7748 172.153 15.8248 169.186 14.1811 170.012C12.6377 170.787 15.2687 173.775 16.2686 174.996L16.3847 175.14C17.5213 175.169 18.622 175.877 19.5432 176.448C21.1424 177.439 22.8136 178.293 24.5164 179.092C27.9009 180.683 31.4946 181.806 34.8432 183.477C34.8875 183.501 34.8537 183.557 34.8115 183.551C32.6798 183.211 30.5713 182.668 28.5115 181.994L28.4196 181.965L28.3277 181.934C27.041 181.512 25.7713 181.034 24.5227 180.525C23.1347 179.958 21.7784 179.322 20.4622 178.601C19.2706 177.951 17.9481 176.778 16.5664 176.604C16.4185 176.585 16.2875 176.583 16.1734 176.594C14.5868 176.727 15.8988 179.356 16.3425 180.142C17.0671 181.433 17.9418 182.625 18.9453 183.714C20.9798 185.925 23.4453 187.677 26.1136 189.04C27.0242 189.505 27.9559 189.915 28.9023 190.291Z" fill="black"/>
<path fill-rule="evenodd" clip-rule="evenodd" d="M110.107 51.5414C142.061 49.9661 163.742 75.2293 164.675 85.3035C165.323 92.2965 164.883 101.623 164.883 107.872C164.883 111.061 166.489 120.757 164.675 125.406C160.639 135.753 156.078 143.858 143.442 143.858C130.806 143.858 111.543 137.293 104.928 128.824C103.721 127.278 88.7133 115.96 88.7133 107.064C88.7133 88.0838 87.3063 52.6655 110.107 51.5414Z" fill="white"/>
<path fill-rule="evenodd" clip-rule="evenodd" d="M88.3078 31.0414C90.1289 30.4708 91.2911 31.2923 92.1203 32.5651C92.3031 32.5294 92.48 32.5317 92.6769 32.5792C92.7256 32.5911 92.8434 32.6357 92.9326 32.6707C93.0015 32.6997 93.0637 32.7348 93.1236 32.772L93.1592 32.7532V32.7532C93.2959 32.6037 93.4394 32.4674 93.5944 32.3575C93.9427 32.1107 94.3015 32.0388 94.642 32.0895L94.7996 32.0314V32.0314C96.1476 31.5605 97.6091 31.7791 98.523 32.9432C98.6999 33.1681 98.8428 33.4185 98.9649 33.6827C99.2389 33.7727 99.4961 33.9029 99.7177 34.0631C99.8733 33.9898 100.038 33.9281 100.214 33.8826C101.208 33.6269 102.253 33.8683 103.063 34.4795C103.458 34.7768 103.748 35.1492 103.969 35.5745C104.219 35.6335 104.467 35.7396 104.699 35.882C104.898 35.7825 105.101 35.689 105.309 35.625C106.068 35.3912 106.882 35.3052 107.672 35.3642C109.375 35.4908 111.022 37.4404 109.884 39.1147L109.849 39.1653C109.704 39.3672 109.578 39.5758 109.462 39.7878C109.87 39.9655 110.262 40.2033 110.625 40.5013C112.398 41.9586 112.558 44.2052 112.226 46.3245L112.212 46.4127H112.216C113.159 46.5024 113.973 47.4892 113.416 48.4173L113.389 48.4607C112.635 49.628 111.989 50.9175 111.269 52.1458C109.277 52.8659 107.355 53.7527 105.546 54.8272C104.419 55.8168 103.347 56.863 102.403 58.0269C101.932 58.6081 101.499 59.2233 101.101 59.8612C101.419 60.0144 101.812 60.0066 102.145 59.698C105.1 56.9524 108.671 55.0255 112.473 53.7341C112.747 53.6409 112.926 53.4655 113.027 53.258C114.715 52.7759 116.433 52.402 118.167 52.1374C118.645 51.6806 119.146 51.244 119.622 50.7892C120.23 50.2088 120.991 50.2173 121.56 50.5818C121.843 50.4527 122.132 50.3388 122.425 50.2363L122.607 50.1741C122.683 50.1492 122.755 50.1202 122.83 50.0974C124.865 49.4736 126.727 49.7052 128.729 50.2178L128.985 50.2847C129.919 50.5329 130.506 50.4932 131.41 50.2648L131.512 50.2386C132.472 49.9875 133.499 49.8015 134.481 50.0659C135.508 50.3427 136.189 50.9581 136.889 51.7016L136.959 51.7764C137.285 52.1265 137.474 52.1647 137.901 52.1561L138.359 52.1425C140.086 52.0951 141.778 52.1681 143.072 53.5076C143.55 54.0029 144.063 54.704 144.371 55.3438L144.416 55.4393C144.43 55.4704 144.443 55.4964 144.455 55.5196C144.64 55.4896 144.929 55.3719 145.067 55.345C146.949 54.979 148.52 55.5431 149.729 57.0303C149.993 57.3558 150.393 57.9949 150.67 58.3462C150.767 58.4286 150.858 58.517 150.945 58.6098C151.399 58.9004 152.042 58.882 152.551 58.9839C153.938 59.2607 155.42 59.7895 156.126 61.1128C156.42 61.665 156.529 62.2693 156.654 62.8729C157.12 63.18 157.485 63.6226 157.769 64.1017C158.114 64.6833 158.261 65.3958 158.658 65.9451C158.946 66.3441 159.387 66.5572 159.807 66.8011L159.967 66.8954C161.209 67.6372 162.182 68.4604 162.591 69.9138L162.627 70.0431C162.693 70.2658 162.926 70.9012 162.723 70.8057C162.898 70.9023 163.195 70.9363 163.354 70.9892C164.216 71.2751 164.966 71.7372 165.425 72.5485C165.774 73.1661 165.838 73.8098 165.938 74.4906L165.98 74.7654C165.991 74.8319 166.004 74.9091 166.018 74.984L166.031 75.0577L166.034 75.0594C166.19 75.127 166.343 75.2003 166.494 75.2794C167.209 75.701 167.697 76.4329 167.697 77.2802C167.697 77.6915 167.569 78.0119 167.382 78.2979C167.533 78.527 167.65 78.7711 167.738 79.0431C167.912 79.5742 167.924 80.155 167.865 80.7045C167.795 81.3639 167.627 81.9644 167.428 82.5942C167.351 82.8373 167.32 83.1769 167.205 83.409C167.418 83.681 167.545 84.0134 167.505 84.3414C167.449 84.8106 167.235 85.3591 166.811 85.6222C166.604 86.6473 166.158 87.6947 165.719 88.5327C165.668 88.63 165.607 88.7166 165.54 88.7885C165.601 92.1341 165.356 95.5033 165.339 98.8445C165.32 102.482 165.396 106.122 165.523 109.754C165.736 115.776 166.497 122.002 164.724 127.874C163.273 132.68 160.368 136.805 156.472 139.933C152.483 143.133 147.675 144.985 142.569 145.274C139.971 145.42 137.33 145.124 134.817 144.45L134.548 144.377C132.117 143.707 129.301 142.684 127.512 140.893C126.567 139.946 127.522 137.94 128.907 138.492C130.28 139.039 131.511 139.849 132.873 140.419C134.089 140.929 135.359 141.32 136.644 141.607C139.223 142.188 141.957 142.315 144.578 141.954C154.039 140.656 161.412 132.779 162.866 123.439C163.269 120.853 163.262 118.224 163.234 115.61L163.204 112.747C163.181 110.351 163.173 107.954 163.261 105.559C163.372 102.478 163.59 99.3983 163.881 96.3297L164.032 94.7329C164.212 92.8646 164.415 90.9821 164.764 89.1393C164.478 89.1543 162.22 85.2832 160.968 83.1201C160.511 82.7565 160.124 82.3049 159.975 81.7205C159.944 81.5985 159.928 81.4755 159.919 81.3523C159.647 80.9239 159.36 80.5065 159.057 80.1016L158.991 80.0719C158.94 80.0487 158.901 80.0293 158.877 80.0162C158.217 79.6406 157.665 79.0716 157.287 78.4122C157.16 78.1899 157.056 77.9578 156.971 77.7205C156.432 77.1906 155.869 76.6851 155.277 76.211C155.219 76.1645 155.159 76.121 155.1 76.0751C154.346 75.7932 153.685 75.3684 153.202 74.7565C153.001 74.6314 152.798 74.5088 152.593 74.3888C151.979 74.383 151.358 74.2395 150.754 73.9908C149.65 73.536 148.767 72.6371 147.658 72.2205C146.484 71.7803 145.247 72.7808 144 72.6003C143.682 72.5542 143.366 72.4572 143.073 72.3165C142.371 73.0621 141.626 73.7651 140.804 74.3803C139.611 75.2735 138.392 75.6816 137.01 76.0851C136.325 76.7366 135.558 77.3684 134.633 77.4612C132.492 79.1765 130.203 80.6234 127.794 81.9667C127.407 82.1827 127.021 82.2801 126.656 82.2827C125.9 82.7582 125.076 83.1241 124.204 83.3773C123.931 83.4565 123.65 83.4732 123.373 83.4392L122.617 84.0565V84.0565C122.091 84.486 121.53 84.6912 120.993 84.7045C120.666 84.9554 120.327 85.1928 119.979 85.421C119.605 85.666 119.121 85.7674 118.635 85.7378C117.891 86.4666 116.928 86.5431 116.121 86.2075C116.01 86.2726 115.896 86.3343 115.768 86.3949C115.593 86.4776 115.412 86.5473 115.226 86.6037C114.385 87.513 113.153 87.9898 111.919 87.8651C110.997 88.4311 109.924 88.7255 108.875 88.6593C108.715 89.465 108.583 90.2736 108.471 91.085L108.459 91.6794C108.458 91.7757 108.458 91.8508 108.459 91.9002L108.46 91.9198C108.563 94.5256 108.619 97.1326 108.72 99.7387L108.729 99.9444C108.845 102.221 109.404 106.373 106.065 106.282C104.821 106.248 103.587 105.33 102.618 104.575L102.482 104.468C102.407 104.41 102.331 104.351 102.255 104.291C101.531 104.196 100.817 104.02 100.086 103.993C99.1835 103.961 98.2348 104.054 97.3557 104.259C95.804 104.621 94.3029 105.329 93.291 106.612C93.2025 106.724 93.1202 106.842 93.0422 106.96C92.9706 107.203 92.8483 107.427 92.6859 107.622C91.7288 109.78 92.2814 112.631 93.3395 114.605C94.6003 116.956 96.5953 118.582 99.104 119.4L99.2299 119.441C100.944 119.977 101.599 121.017 102.531 122.463C103.404 123.82 104.406 125.084 105.481 126.284C107.562 128.607 110.482 130.524 111.692 133.464C111.936 134.056 111.236 134.613 110.694 134.461C108.571 133.863 107.083 132.348 105.54 130.841C104.472 129.797 103.445 128.712 102.481 127.572C102.279 127.665 102.056 127.728 101.825 127.757C100.802 127.882 99.7476 127.83 98.8525 127.277C98.4399 127.315 98.01 127.171 97.6909 126.878C97.398 126.609 97.1455 126.317 96.9321 126.006C96.6079 126.035 96.2895 126.044 95.9857 125.993C95.8392 125.979 95.6973 125.941 95.5673 125.877C95.3256 125.782 95.0965 125.634 94.8861 125.408C94.4598 124.949 94.2964 124.301 94.3751 123.685C94.2907 123.667 94.207 123.646 94.1244 123.618C93.5569 123.425 93.12 123.043 92.8409 122.522C92.3415 122.241 91.8918 121.861 91.5513 121.456C91.1366 120.964 90.8238 120.409 90.6399 119.796C90.45 119.708 90.2655 119.605 90.0888 119.485C88.8228 118.626 88.098 117.014 88.5952 115.524L88.612 115.477C88.6373 115.41 88.683 115.295 88.7389 115.166C88.7309 115.061 88.7225 114.956 88.7168 114.851L88.6993 114.533V114.533L88.4457 114.425V114.425C87.1808 113.921 86.3257 113.24 86.1737 111.814C86.142 111.519 86.2563 111.218 86.4366 110.966L86.4357 110.887V110.887C86.3535 110.844 86.2753 110.801 86.2063 110.757C85.5167 110.315 85.093 109.524 85.1404 108.705C85.184 107.96 85.5962 107.365 86.0596 106.815L86.192 106.661C86.203 106.648 86.2153 106.634 86.2285 106.619L85.9221 106.523C85.7233 106.459 85.5413 106.396 85.4103 106.323C84.9035 106.038 84.4738 105.653 84.2088 105.164C84.1702 105.103 84.131 105.044 84.0956 104.979C83.7534 104.353 83.7087 103.551 83.9295 102.879C83.9556 102.8 83.9893 102.726 84.0239 102.651C83.0921 102.322 82.3746 101.642 82.2882 100.387C82.2543 99.8941 82.362 99.4027 82.5962 98.9819C82.5444 98.6985 82.5336 98.4047 82.5671 98.1141C82.2393 97.8036 81.9846 97.4295 81.8708 96.9732C81.6555 96.1111 82.0496 95.2909 82.6352 94.5387C82.4185 93.9439 82.4073 93.2729 82.6548 92.6741C82.5595 92.3753 82.5054 92.0593 82.5024 91.7349C82.4959 91.0165 82.7166 90.4165 83.0731 89.9061C82.572 89.2919 82.334 88.4757 82.63 87.7108C82.8406 87.1672 83.0813 86.6699 83.3588 86.2092C83.2131 85.8587 83.1283 85.4663 83.1283 85.0269C83.1283 84.2364 83.4239 83.6102 83.8761 83.0977C83.6798 82.1616 84.0789 81.0216 84.9488 80.6094C85.2766 80.4539 85.7155 80.2916 86.1992 80.1652C86.3807 79.5966 86.5702 79.0304 86.7703 78.4682C87.0855 77.5833 87.4245 76.7106 87.7837 75.8481C87.5769 76.0297 87.36 76.199 87.1356 76.3524C86.4262 77.2566 85.4857 78.0398 84.6954 78.5084C83.1285 79.4375 81.3366 78.8863 80.5631 77.3318C79.8361 77.8758 78.9638 78.1979 78.033 78.0878C76.9776 77.9629 76.0127 77.2777 75.7491 76.2089C75.711 76.0542 75.688 75.887 75.6857 75.7188C75.0804 76.1508 74.4471 76.5483 73.7525 76.776C72.8676 77.0659 71.9645 76.3704 71.8477 75.5038C71.8015 75.1604 71.8656 74.8569 72.002 74.6005L71.9156 74.5664C71.9012 74.5604 71.887 74.5542 71.8728 74.5475C71.4087 74.3296 71.0485 73.9301 70.8773 73.4694C69.8725 73.8591 68.7222 73.4024 68.4035 72.2947C68.024 70.978 68.001 69.6444 68.2981 68.3617C67.2334 67.586 66.5398 66.282 66.4218 64.9188C66.3355 63.9402 66.5685 63.0369 66.979 62.2017C65.9721 61.8242 65.6259 60.5011 66.1045 59.5479C65.4688 59.1832 65.0544 58.4098 65.0451 57.657C64.7611 57.2258 64.6702 56.6706 64.9057 56.0484C65.2163 55.2286 65.8487 54.5427 66.5729 54.0049C66.2571 53.4537 66.0225 52.8526 65.8768 52.2314C65.2768 52.0554 64.7925 51.5688 64.6939 50.8382C64.5703 49.9222 65.1718 49.1457 65.9813 48.9407C66.0712 48.6617 66.1808 48.3889 66.3163 48.1268C65.9158 47.1757 65.9748 45.9731 66.4913 44.9333C66.9488 44.0139 67.693 43.4517 68.589 43.0628C68.3613 42.2808 68.6628 41.501 69.4217 40.9197C70.3483 40.2094 71.3645 39.6664 72.4323 39.2828C72.3374 38.0099 72.8683 36.7063 74.1229 36.2624C74.4583 36.1439 74.8074 36.1001 75.1622 36.1016C75.4198 35.54 75.8497 35.0835 76.4107 34.6794C77.2596 34.0682 78.8461 34.4416 79.3169 35.4001L79.3399 35.4494C79.3639 35.5037 79.3898 35.5534 79.4145 35.606C79.5094 35.1406 79.7312 34.701 80.0877 34.3406C80.9788 33.4396 81.9197 33.4227 82.8252 33.808C82.9913 33.395 83.1924 33.0024 83.437 32.6433C84.3248 31.3405 85.7914 31.1746 86.8654 31.8801C87.2959 31.5007 87.7763 31.2082 88.3078 31.0414ZM94.6552 109.382C96.4427 108.681 98.6121 108.888 100.379 109.562L100.508 109.613C102.069 110.231 104.604 111.607 104.909 113.366C105.067 114.278 104.203 115.066 103.326 114.586C102.563 114.17 102.135 113.33 101.528 112.722C100.927 112.12 100.254 111.636 99.5209 111.211C97.9904 110.325 96.3816 109.981 94.6552 109.725C94.4612 109.698 94.5139 109.437 94.6552 109.382Z" fill="black"/>
<path fill-rule="evenodd" clip-rule="evenodd" d="M149.69 120.752C150.415 119.473 152.578 119.681 152.909 121.173C153.58 124.198 149.974 126.992 147.235 127.062C144.513 127.131 141.459 124.813 141.853 121.886C141.95 121.162 142.917 121.25 143.247 121.704L143.375 121.878C144.27 123.081 145.451 124.326 147.112 124.033C147.801 123.912 148.426 123.481 148.842 122.928C149.344 122.259 149.289 121.461 149.69 120.752ZM132.384 98.6196C132.753 98.5179 133.125 98.5572 133.452 98.6963C134.181 98.8301 134.791 99.4388 135.005 100.134C135.022 100.194 135.041 100.253 135.062 100.312L135.094 100.4L135.007 100.177C135.047 100.396 135.226 100.627 135.29 100.847C135.369 101.118 135.388 101.425 135.361 101.723C135.593 101.726 135.825 101.734 136.057 101.754L136.281 101.774C137.532 101.89 138.906 102.104 139.648 103.185C140.064 103.793 139.673 104.887 138.908 105.004C137.73 105.185 136.715 104.533 135.54 104.402C134.43 104.278 133.269 104.349 132.173 104.55C129.911 104.963 127.833 105.881 125.628 106.456L125.328 106.532V106.532L125.329 106.531C124.951 106.622 124.522 106.097 124.896 105.789C126.662 104.338 128.923 103.162 131.15 102.446C130.826 101.929 130.725 101.249 130.947 100.695C130.981 100.58 131.024 100.468 131.069 100.357L131.163 100.128V100.128C131.172 100.02 131.193 99.9131 131.223 99.8084L131.227 99.7765V99.7765L131.23 99.7784V99.7784C131.396 99.2393 131.829 98.7726 132.384 98.6196ZM154.914 98.703C155.397 98.2196 156.076 98.2911 156.58 98.6715L156.647 98.724V98.724C157.122 98.9351 157.515 99.3965 157.773 99.824C158.041 100.268 158.22 100.72 158.227 101.209C159.396 101.213 160.516 101.564 161.374 102.508C161.651 102.813 161.84 103.283 161.688 103.696L161.597 103.942V103.942C161.309 104.722 160.013 105.172 159.573 104.254L159.552 104.209C159.084 103.119 157.288 103.234 156.333 103.345C155.668 103.423 155.01 103.589 154.368 103.774C154.141 103.839 153.917 103.91 153.693 103.983L153.469 104.055C153.349 104.094 152.726 104.432 153.114 104.352C153.218 104.331 153.296 104.482 153.19 104.533C152.728 104.754 152.235 104.314 152.266 103.818C152.32 102.957 153.687 102.484 154.345 102.187L154.384 102.169C154.637 102.053 154.901 101.941 155.174 101.837C155.02 101.609 154.894 101.355 154.788 101.083C154.688 100.826 154.622 100.576 154.585 100.303C154.549 100.169 154.549 100.036 154.585 99.902L154.591 99.8638V99.8638C154.572 99.7754 154.563 99.6841 154.565 99.5922L154.561 99.5565H154.565C154.578 99.2346 154.705 98.9121 154.914 98.703ZM147.197 107.877C149.053 108.45 152.114 110.013 151.147 112.424C149.797 114.639 146.216 113.012 144.481 112.296C142.922 111.779 142.11 113.965 143.618 114.624C156.074 119.554 156.028 106.543 147.649 106.734C146.726 106.755 146.697 107.686 147.197 107.877ZM130.717 90.9122L131.034 90.8198C132.678 90.3432 134.357 89.5202 135.818 90.8043C136.391 91.3086 136.509 92.3565 136.099 92.9855C135.164 94.4186 133.778 94.1997 132.269 94.3218C131.119 94.4148 129.987 94.7526 128.914 95.1746C128.037 95.5198 127.224 96.0057 126.457 96.5476C125.702 97.0804 125.187 97.9133 124.413 98.3929C124.13 98.5687 123.802 98.3878 123.701 98.1027C123.34 97.0914 123.949 95.8315 124.465 94.9698C125.095 93.9186 126.052 93.0588 127.08 92.4083C128.207 91.6958 129.452 91.2844 130.717 90.9122V90.9122ZM154.683 89.824C157.463 89.8231 160.138 91.37 161.693 93.6376C162.221 94.408 161.834 95.5492 161.076 95.9929C160.225 96.4908 159.315 96.1322 158.754 95.4187L158.721 95.3755C157.829 94.1875 156.68 93.2519 155.317 92.6428C154.652 92.3454 153.917 92.1042 153.198 91.9819L152.965 91.942C152.64 91.8874 152.262 91.8353 151.967 91.8863C151.809 91.907 151.664 91.9592 151.531 92.0387C151.595 92.1791 151.429 92.3481 151.276 92.264C150.585 91.8844 150.67 91.2073 151.241 90.681C152.048 89.9364 153.64 89.8242 154.683 89.824Z" fill="black"/>
<path fill-rule="evenodd" clip-rule="evenodd" d="M129.449 129.598C131.16 125.59 134.893 122.644 139.191 121.566C142.347 120.777 145.66 120.803 148.877 121.116C150.563 121.279 152.371 121.412 153.96 122.038C155.317 122.573 156.422 123.585 157.254 124.772C158.243 126.179 158.916 127.789 159.389 129.439C159.456 129.674 159.519 129.91 159.578 130.148C159.372 131.393 158.936 132.453 157.783 133.235C156.658 134 155.316 134.313 153.978 134.424C153.847 134.361 153.72 134.296 153.604 134.229C151.518 133.035 150.051 130.213 147.419 130.595C145.07 130.936 143.524 133.893 142.127 135.626C137.644 136.149 133.164 134.801 129.516 132.236C129.33 131.359 129.32 130.473 129.449 129.598M162.625 126.557C162.266 125.551 161.815 124.575 161.279 123.657C159.509 120.619 156.792 118.198 153.566 116.814C145.934 113.546 136.06 115.85 129.897 121.211C127.792 123.044 125.663 125.737 125.019 128.634C124.827 128.672 124.646 128.772 124.496 128.913C120.044 126.108 115.458 123.41 111.87 119.523C109.265 116.698 107.452 113.355 106.342 109.682C106.252 109.38 105.764 109.424 105.779 109.759C105.783 109.837 105.787 109.915 105.792 109.993C105.745 109.849 105.526 109.923 105.509 110.063C104.912 114.525 104.165 119.256 104.853 123.741C105.264 126.418 106.48 128.377 108.104 130.493C109.845 132.761 111.815 134.87 113.83 136.893C115.109 138.177 116.444 139.658 118.01 140.6C119.831 141.694 121.896 142.525 123.84 143.369C125.816 144.23 127.823 145.026 129.867 145.716C133.954 147.099 138.178 148.056 142.476 148.475C145.917 148.809 149.85 149.173 153.148 147.878C155.675 146.886 157.716 145.092 159.334 142.933C161.096 140.583 162.488 137.905 163.258 135.082C164.058 132.149 162.794 127.03 162.625 126.557" fill="black"/>
</svg>
